<svg xmlns="http://www.w3.org/2000/svg" viewBox="0 0 159.83 222.69"><defs><style>.cls-1{fill:#2b2e31;}</style></defs><title>Element 20</title><g id="Ebene_2" data-name="Ebene 2"><g id="Layer_1" data-name="Layer 1"><path class="cls-1" d="M150.19,122.27c-15.08-3-38.35-6.26-48.69-4.38-10.77,2-13.46,3.08-14.66,5.33s-5.15,2.36-7,2.45c-1.86-.09-5.8-.2-7-2.45s-6.06-3.49-16.92-4.9c-12.42-1.61-31.35.93-46.44,3.94a2.23,2.23,0,0,0-1.79,2.23A74.31,74.31,0,0,0,8.8,136.1,2.26,2.26,0,0,0,11.14,138l4-.23S16.5,148,18.5,156.43c2.18,9.22,8.31,11.61,22.81,11.44s21-.28,25.77-8.49,6.51-17.92,12.75-17.95c5.92-.08,8,9.73,12.75,17.95s11.28,8.33,25.77,8.49,20.63-2.23,22.81-11.44c2-8.46,3.35-18.71,3.35-18.71l4,.23a2.26,2.26,0,0,0,2.34-1.85A74.31,74.31,0,0,0,152,124.51,2.23,2.23,0,0,0,150.19,122.27ZM66.05,151.21c-4.61,11.18-15.69,11.08-28.18,10.68s-13-5.47-14.87-12.26S17.66,129,26.69,126.22s22.82-2.16,31.23-1.2,13.38,4.5,13.2,8.34S70.67,140,66.05,151.21Zm70.59-1.58c-1.86,6.79-2.38,11.86-14.87,12.26s-23.57.51-28.18-10.68-4.87-14.13-5.05-17.86,4.79-7.37,13.2-8.34,22.2-1.54,31.23,1.2S138.51,142.84,136.65,149.63Z"/><path class="cls-1" d="M104,29a48.21,48.21,0,0,0,4.36-15.76c.88-11-28-13.22-28-13.22s-28.86,2.2-28,13.22A48.21,48.21,0,0,0,56.81,29C29.27,36.44-9.81,58,12.58,120.27l6.83-1.32s-7-74.67,61-42.29c68.06-32.38,61,42.29,61,42.29l6.83,1.32C170.65,58,131.57,36.44,104,29Z"/><path class="cls-1" d="M74.47,172.25c-.82-.47-.66,1.54,0,1.87a13.94,13.94,0,0,0,11.23-.94S78.33,174.46,74.47,172.25Z"/><path class="cls-1" d="M74.69,196.26c-1-.7-1.1,1.54,0,2a13.9,13.9,0,0,0,8.15,0S77,197.8,74.69,196.26Z"/><path class="cls-1" d="M7.67,136.35l-.49-4a7.37,7.37,0,0,0-5.4,2c-2.53,2.31-5.51,16.41,15.31,29.41C17.09,163.77-5.39,141.41,7.67,136.35Z"/><path class="cls-1" d="M152.16,136.35l.49-4a7.37,7.37,0,0,1,5.4,2c2.53,2.31,5.51,16.41-15.31,29.41C142.74,163.77,165.22,141.41,152.16,136.35Z"/><path class="cls-1" d="M128.52,168.38c-11.76,26.91-21.45,41.65-38.41,50.35-4.16,2.13-10.3,1.65-10.3,1.65s-6.14.48-10.3-1.65c-17-8.7-26.65-23.44-38.41-50.35l-2.23-.5s17,46.22,42.73,53.47a25.66,25.66,0,0,0,16.42,0c25.76-7.24,42.72-53.47,42.72-53.47Z"/><path class="cls-1" d="M54.22,136.81l-5.51,5.26,2.24-7.26a7.55,7.55,0,0,0-2.24-.37,7.67,7.67,0,1,0,5.51,2.37Z"/><path class="cls-1" d="M116.77,136.81l-5.51,5.26,2.24-7.26a7.55,7.55,0,0,0-2.24-.37,7.67,7.67,0,1,0,5.51,2.37Z"/></g></g></svg>