<svg xmlns="http://www.w3.org/2000/svg" viewBox="0 0 155.83 221.98"><defs><style>.cls-1{fill:#2b2e31;}</style></defs><title>Element 18</title><g id="Ebene_2" data-name="Ebene 2"><g id="Layer_1" data-name="Layer 1"><path class="cls-1" d="M102.51,26.67C107.2,22.12,114.84-2.7,75.78.24c-33.74,2.54-18.65,27-18.65,27C17.33,24.91-9.69,78.36,10,112.15a73.09,73.09,0,0,1,9.41-3.84C18.26,103.56,18,96,22,85.12a53.33,53.33,0,0,0,4.71,21.35q1.06-.2,2.19-.37a48.81,48.81,0,0,1,4.26-18.92,77.86,77.86,0,0,0,.7,18.33l2.11-.15c-.46-4.57-.54-10.33,1-15.11a59.83,59.83,0,0,0,2.9,15h.82c.51,0,1.06,0,1.59,0a42.49,42.49,0,0,1-.47-9l2.11,9h.47a69.89,69.89,0,0,1-.09-8,20.49,20.49,0,0,0,1.84,8.08c1.32.07,2.61.16,3.86.27a81.61,81.61,0,0,0,4.43-17.75,69.13,69.13,0,0,0,3.8,18.83c2.27.39,4.37.84,6.28,1.31a46.33,46.33,0,0,1,3.72-8c3.23-5.14,4.85-7.64,5.14-10.57a95.23,95.23,0,0,1,2.52,22.31l.39.17a4.94,4.94,0,0,0,2,.44l.2,0a65,65,0,0,0,4.85-19.08,64.06,64.06,0,0,1,4.2,16c2.15-.67,4.62-1.33,7.41-1.92a54.94,54.94,0,0,1,.72-13.32,42.23,42.23,0,0,1,3.06,12.6c1.58-.27,3.25-.51,5-.72a33.18,33.18,0,0,0-.28-15.55s3.52,5.25,4.15,15.18c1.46-.12,3-.22,4.53-.28,1.31-.05,2.57-.08,3.79-.08h.05a25,25,0,0,0-.92-18.05s5.49,8.51,6.48,18.23c1.19.08,2.32.19,3.42.31.74-3,1.13-6.71-.35-9.88a22.23,22.23,0,0,1,3.81,10.36,62.32,62.32,0,0,1,6.77,1.49c.1-4-.79-10.41-5.15-19.2,0,0,5.77,4.73,7,19.74,1.39.44,2.68.9,3.87,1.37a16.19,16.19,0,0,0-.12-5.55,26.4,26.4,0,0,1,1.19,6l1.1.47a18.33,18.33,0,0,0,.21-6.16,30.79,30.79,0,0,1,1.63,7l2.31,1.09.82.39a47.31,47.31,0,0,0-3.58-24.45,43.34,43.34,0,0,1,6.39,26l.11.1C171.23,38.13,102.51,26.67,102.51,26.67Z"/><path class="cls-1" d="M152.29,122.71c-.27-.12-2.94,1.76-1.69,3.16s3.3,4.11,1.84,12.7-3.3,12.34-3.3,12.34-2.5-8.44-2.28-14.1,1.25-6.83.22-7.2-2.42,1.1-2.13,6.61,4.41,21.29,5.29,30.32.66,14.61-1.25,20.85c0,0,4.92-6.61,3.89-19.09s-2.28-15.42-2.28-15.42,5.58-11.82,5.21-18.65S155.22,124,152.29,122.71Z"/><path class="cls-1" d="M142.52,144.89s-2.86,10,1.84,17.4,4.7,18.06,3.45,21.29c0,0-1.32-9.25-3.3-11.75,0,0-3.3,6.39-4.19,7.2,0,0-2.72-.22-2.2-1.69s5.65-8.3,4.26-12S134.74,152.89,142.52,144.89Z"/><path class="cls-1" d="M5.29,124.69c-.38-.67-2-2.2-3.67-1s-2.5,14.39-.22,20.41,3.3,8.59,3.82,8.59-3.45-8.59-3.52-14.46.29-14.1,2.86-12.11S5.59,125.21,5.29,124.69Z"/><path class="cls-1" d="M18.44,153.92c-.27-1.09-.29-2.2.29-2.13s1.25,2.28,1.76,5.29,8.15,20.71,24.45,39.5c13.73,15.83,20,19.31,25.7,21.66a25.18,25.18,0,0,0,15,1.84c5.21-.81,12.74-2.62,20.71-10.94,8.15-8.52,16.3-22,21.51-31.35s8.74-13.07,9.1-16.23.88-4.19,1.1-4.26a7.1,7.1,0,0,1,1.1,4c-.29,1-2.2,6-13.66,24.3S104,221.69,82.17,222,45.9,200.61,35.84,187.47,21,164.49,18.44,153.92Z"/><path class="cls-1" d="M77.16,166.95c-1.46-.08-2.7-.83-3.3-.17s1.43,1.27,2.42,1.49a10.14,10.14,0,0,0,4.52-.72c1.87-.61,2.86-.61,1.54-1S79.08,167.06,77.16,166.95Z"/><path class="cls-1" d="M100.73,186.8c-.72,0-2.75.06-6.55-2.59s-5.34-4.68-11.56-3.52c0,0-2.31,1.27-6.39-.11s-7.65,1.21-9.58,2.86-3.41,3.47-6.44,3.08c-1.26-.16-3.52.17-2.26,1.76s6,7.76,12.89,8.32,7.82-.17,10.24,0,8.32,1.6,12.28-1.21,7.82-6.88,7.93-7.76S101.44,186.8,100.73,186.8ZM65.37,186c2.53-1.54,2.7-2.7,5-4.13s4.63-.55,6.66-.11a13.26,13.26,0,0,0,6.55-.11c2.75-.66,4.3.17,6.5,1.21A76,76,0,0,1,96.65,187c.33.17-.61.5-1.87.61a12.75,12.75,0,0,1-3.8-.44,37.33,37.33,0,0,0-7-.39c-.77.17-2.2,1.16-3.91,1.32s-2.37-.94-3-1.16-1.54.06-4.19.61-6.72-.17-8-.39S64.51,186.55,65.37,186Zm31.83,5a21.09,21.09,0,0,1-6.39,4.41c-2.81,1.27-8,.17-9.47-.06s-5.51.72-9,.33-6.33-2.53-8.54-3.85-3-2.92-2.64-3.14,2.31.5,3.74.5c1.93,0,6.77-.39,9.36-.72s1.43.39,4.52,1,3.69-.66,5.56-1.54,6.44.61,9.75.61a23.55,23.55,0,0,0,4.9-.44C99.29,188.12,99,189.33,97.2,191Z"/><path class="cls-1" d="M77,205c-.65.35-1.65-.22-.61-.83A15.66,15.66,0,0,1,83.27,203c2.86.11,1.32.77.33.77S79.14,203.85,77,205Z"/><path class="cls-1" d="M17.41,153.33c-.7-3.37-2.92-10.08-4.52-15.23a82.16,82.16,0,0,0-.84,13,70.58,70.58,0,0,1-1.47,15.71c-2.06-5.21-1.91-10.94-1-17.62.81-5.65,1-16.2,1.09-19.34-.33-.51-.74-.27-1.16-.41-.93-.31-1.84-.22-1.54.66s1.69,8.59-.44,18.8A31.51,31.51,0,0,0,9.26,168c.73,1.84-.37,10-2.2,12.41,0,0,3.08-.29,5.51-4.92S18.51,158.62,17.41,153.33Z"/><path class="cls-1" d="M150.77,116.19a2.21,2.21,0,0,0-1.3-1.53c-6.31-2.76-16.06-9.05-37-8.22-16,.64-26.63,4.5-31.26,6.58a6.44,6.44,0,0,1-5.3,0c-4.63-2.08-15.25-5.94-31.26-6.58-21-.83-30.72,5.46-37,8.22a2.21,2.21,0,0,0-1.3,1.53,11.87,11.87,0,0,0,2.44,9.92,2.16,2.16,0,0,0,1.72.81h2.31s1.17,20.73,11.4,27.75,26.94,6.71,34.64,2.78a21.2,21.2,0,0,0,11.11-13.74c1.9-6.58,1.67-16.08,8.62-16.08,6.2,0,6.72,9.5,8.62,16.08a21.2,21.2,0,0,0,11.11,13.74c7.7,3.93,24.41,4.24,34.64-2.78s11.4-27.75,11.4-27.75h2.31a2.16,2.16,0,0,0,1.72-.81A11.87,11.87,0,0,0,150.77,116.19ZM67.28,139.65c-1.86,11.18-11.14,19.85-31.24,16-17.76-3.4-18.42-21.45-18.7-24.77-.41-4.93-2.81-16.38,14.09-18.41C48.76,110.39,62.68,114,66.73,118S68.1,134.72,67.28,139.65Zm72.44-8.77c-.27,3.32-.94,21.37-18.7,24.77-20.1,3.85-29.37-4.82-31.24-16-.82-4.93-3.51-17.76.55-21.7s18-7.56,35.29-5.48C142.53,114.51,140.13,126,139.72,130.89Z"/><path class="cls-1" d="M51,128.32l-5.51,5.26,2.24-7.26a7.56,7.56,0,0,0-2.24-.37A7.67,7.67,0,1,0,51,128.32Z"/><path class="cls-1" d="M115.36,128.32l-5.51,5.26,2.24-7.26a7.56,7.56,0,0,0-2.24-.37,7.67,7.67,0,1,0,5.51,2.37Z"/></g></g></svg>