<svg xmlns="http://www.w3.org/2000/svg" viewBox="0 0 146.84 208.64"><defs><style>.cls-1{fill:#2b2e31;}</style></defs><title>Element 23</title><g id="Ebene_2" data-name="Ebene 2"><g id="Layer_1" data-name="Layer 1"><path class="cls-1" d="M141.58,95.63c-3.22-1.3-16-6.16-30.1-6.94S89.7,94.22,87,96.81a2.66,2.66,0,0,1-2.19.7,84.64,84.64,0,0,0-8.43-.8,84.64,84.64,0,0,0-8.43.8,2.66,2.66,0,0,1-2.19-.7C63,94.22,55.34,87.9,41.21,88.69s-26.88,5.64-30.1,6.94a1.24,1.24,0,0,0-.78,1.16v4.37a1.26,1.26,0,0,0,1.07,1.23,5.18,5.18,0,0,1,3,1.45c-.28,4.89-.21,12.43,1.33,17.39s5.45,15.79,19.35,18,22.77-3.28,29.34-11.94c5.62-7.41,5.82-19.23,5.76-22.48a1.32,1.32,0,0,1,1-1.32,36.08,36.08,0,0,1,10.28,0,1.32,1.32,0,0,1,1,1.32c-.06,3.25.14,15.07,5.76,22.48,6.57,8.66,15.44,14.11,29.34,11.94s17.81-13,19.35-18,1.61-12.5,1.33-17.39a5.18,5.18,0,0,1,3-1.45,1.26,1.26,0,0,0,1.07-1.23V96.79A1.24,1.24,0,0,0,141.58,95.63Zm-76,24.11c-2.1,5.87-6.25,11.6-16,15.72-8.18,3.45-18.3,1.43-23.33-2.48s-8.33-8.82-9.5-18.09c-1.19-9.43,2.93-17.32,5.52-18.86s7.26-4.54,17.6-5c6.85-.28,15.93.87,23.26,6.85S66.85,116.31,65.62,119.74Zm70.31-4.85c-1.17,9.27-4.47,14.18-9.5,18.09s-15.15,5.93-23.33,2.48c-9.78-4.12-13.94-9.85-16-15.72-1.23-3.43-4.85-15.85,2.48-21.83s16.41-7.12,23.26-6.85c10.34.42,15,3.42,17.6,5S137.12,105.45,135.93,114.88Z"/><path class="cls-1" d="M20.76,91.14s10.43-7.64,12.19-7.78,30.54,5,32.75,6,2.32,3.43,1.17,5.43c0,0-8.37-4.9-14.68-6.19S37.94,85.56,20.76,91.14Z"/><path class="cls-1" d="M85.81,94.81S83.46,91,84.93,90s25-7,31.72-6,12.92,6.46,12.92,6.46-14.1-4.41-24.38-3.08S85.81,94.81,85.81,94.81Z"/><path class="cls-1" d="M69.66,136.22c-.93.46.29,2.48,1.76,3.44s8.22,2.87,12-2.71c0,0-5,2.94-8.66,1.54S71.13,135.49,69.66,136.22Z"/><path class="cls-1" d="M94,158.91c-3.38-2.13-8.81-5.07-10.57-4.62s-5.73,1.91-8.52,1.91a15.66,15.66,0,0,1-7.36-1.62c-3.1-1.32-8.2,2.2-10.7,4s-6.33,4.64-5.58,5c1.91.88,6.61,6.46,9,9.55s4.11,2.79,6.31,2.66,10.43-1,14.68-.16,9-2.06,10.87-4.85,6.46-6.31,6.9-7.2S97.41,161,94,158.91Zm-33.59-.26c3.52-2.09,5-2.31,6.83-1.87s5.07,2,7.87,1.43,8.54-2,9.64-1.62,9.91,5.25,11.23,6.25c0,0-6.28,1.32-9.25.88s-5.4-1.1-6.94-.66-3.3,2.29-5,2-3.69-1.75-4.68-1.64a40.28,40.28,0,0,1-7,1,26.72,26.72,0,0,1-9.47-1.54S56.92,160.75,60.44,158.66Zm30.4,11.23C89.3,171.76,87.1,174,84.45,174s-5.62-.44-9.31-.44a87.81,87.81,0,0,0-10.08,1c-3.1.33-4.07-2.64-5.95-4.74s-3.67-5.11-5.51-6.17a22.43,22.43,0,0,0,7.27,2,44.88,44.88,0,0,0,8.45-1,3.86,3.86,0,0,1-.7,2.68c.47-.57,2-2.38,3-2.21a7.73,7.73,0,0,0-.88,3.06s1.87-1.76,2.64-1.76,1.43,1.21,1.38,3.52A5.3,5.3,0,0,0,76,166.75c0-.21,0-.36,0-.5h0s0-1,0,0c0,0,1.43.33,1.76,2.64,0,0,1.43-.77,0-2.86,0,0,1.32-.44,2.2,1.32a2.3,2.3,0,0,0-1-2.29s.88-1.56,3.63-.79,5.18,1.4,8.59.76a29.9,29.9,0,0,0,5.29-1.42S92.38,168,90.84,169.89Z"/><path class="cls-1" d="M5,103.48l4.11-2.37s-1-5.12,0-5.71,7-2.5,6.9-2.94-6.31-14.1,1.62-27.75S34.27,44.59,43.23,49.58a3.12,3.12,0,0,1,.94,2.35s1.26-4.11,1.7-2.64a1.57,1.57,0,0,0,1.62,1.32s.29-6.61,10.87-9.84,37.74-6.95,55.51,11,17.33,38.82,17.33,38.82l9.4,3.51s11.31-23.33,3.52-43.45S116,6.26,88,1,34.41,13.17,28.39,22c0,0-22.47,4-27,31.13A111.55,111.55,0,0,0,5,103.48Z"/><path class="cls-1" d="M9.74,103.48c.46-.08,1,.88,0,1.76s-2.79,2.5-1.62,7.93,4.26,22.47,5.43,23.94S17.67,142,17.67,142l.73-11.75A20,20,0,0,0,21.64,134a37.71,37.71,0,0,0,5.58,26.43c8.52,13.36,28.64,35.83,32.45,39.36s11.81,7.2,16.67,6.9,17.32-3.34,28.92-20.08,16.67-24.85,19.31-32,4-13.13,2.94-17.4a10.13,10.13,0,0,0,3.38-2.94,11.74,11.74,0,0,1,.59,4.09s4.7-2.62,6-6.88,2.94-15.57,3.08-19.68,0-6.9,0-6.9,1-1.76,1.77-1.47,1,2.64.72,6.9-1.62,17.47-4.26,23.06a20.1,20.1,0,0,1-8.08,8.37S129,155.46,117.24,172.5,99,200.4,84.93,206.56s-23.2-3.08-26.73-6.17-18.5-18.8-26.58-29.81-11.38-19.18-13.07-24.38c0,0-6.6-6.39-8.22-10.17s-7.93-27-6.76-29.19S8,103.77,9.74,103.48Z"/><path class="cls-1" d="M67.58,187.62c-1-.26,0-1.62,1.75-2.2a22.07,22.07,0,0,1,9.87,0S69.32,188.06,67.58,187.62Z"/><path class="cls-1" d="M51.53,107.47,46,112.73l2.24-7.26a7.56,7.56,0,0,0-2.24-.37,7.67,7.67,0,1,0,5.51,2.37Z"/><path class="cls-1" d="M110.56,107.47,105,112.73l2.24-7.26a7.56,7.56,0,0,0-2.24-.37,7.67,7.67,0,1,0,5.51,2.37Z"/></g></g></svg>