<svg xmlns="http://www.w3.org/2000/svg" viewBox="0 0 187.23 215.86"><defs><style>.cls-1{fill:#2b2e31;}</style></defs><title>Element 26</title><g id="Ebene_2" data-name="Ebene 2"><g id="Layer_1" data-name="Layer 1"><path class="cls-1" d="M162.85,185.67s-10.28-11.45.59-23.2c0,0,10.43,6.17,15.42-5.73,0,0-8.81-1.17-9.69-10.43a8.8,8.8,0,0,0,7.64-7s-3.23.88-7.34-3.23c0,0,17.33-.59,14.54-18.5,0,0-2.5,4.41-6,5.73,0,0,5.87-8.22-6.46-16.74,0,0,15-15.86,15.71-32.75,0,0-2.79,2.64-5.87,5.29,0,0,4.41-6.61,5.29-11.89a49.05,49.05,0,0,1-17,10s11.31-5,6-26.29c0,0-1.47-3.52-6.46-5.87,0,0,3.38-7.64-2.64-11.6,0,0-5,1.91-8.37-2.35s-7.34-7.78-9.1-9.84-5.73-11.6-15-15.86-12.92-2.79-15.42-1.91c0,0-5.43-2.5-14.54,2.5,0,0-3.08-6.61-15.71-5.87S70.49,5.78,65.93,9.9a4.38,4.38,0,0,0-5.14-.29c-2.79,1.76-2.64,2.94-2.64,2.94s-7.2.15-6.61,9c0,0-7.2-6-16.45-4S24.38,32.36,24.38,32.36s-2.35-.15-5.73,3.38-7.49,5.58-11.16,3.67c0,0-.15,9.4,3.52,10.43,0,0,1.32,2.06.29,2.5S5.29,55.71,0,53.8a14.62,14.62,0,0,0,10.13,4.85,9.7,9.7,0,0,0-2.79,2.64s-.88-.44-1.62-2.5a6.1,6.1,0,0,0-.15,4.41s-2.2,2.94-1.32,7.93c0,0-3.08-1.47-3.52-2.79,0,0-.15,8.52,4.7,13.07s7,4.55,7,4.55a4.64,4.64,0,0,0,.88,3.23s-3.23.29-4.26,1.62A19.68,19.68,0,0,0,7.2,94s-3.38-3.52-3.38-7c0,0-5.87,11.89,4.7,20.27,0,0-2.2,12.63,7.64,16,0,0,1.61,1.62,5.73.44,0,0,4.11,1.91,4,2.94s-4.11,4-4.11,2.94,0-1.62-.59-1.62-4,2.5-5.29,5.29-2.64,7.78-3.52,7.49S5.14,135.16,11,128c0,0-12,6.61-6.9,13.51a6.15,6.15,0,0,0,5.14,2.2S.59,157.33,13.8,160.27c0,0-8.37,5.29-5.87,15.13s5.29,7.34,5.29,7.34,1.76,4-2.06,4c0,0,.29,1.76,1.32,1.91s-1.76,4.11-1,7.2,4.7,9.25,16,3.52,16-21.29,10.28-31.87c0,0,4.41-7.78-4-19.53,0,0,3.38-5.73-2.06-17.18a9.1,9.1,0,0,1-1.47-5.14c-.15-3.52-4.85-17.77.29-22.76s10.72-3.52,10.72-3.52-5.58-2.5-4.55-12.78S41.56,56,63.44,62.47c0,0,12,27.9,49.34,32.75s45.08,4.11,45.08,4.11.88,6.61,7.64,7.78c0,0-13.07,12.92-2.79,24.52,0,0-2.5,2.79-1.62,5.14,0,0-8.08,5.14-3.82,14.83,0,0-13.07,10.72-6.75,29.08s31.43,22.32,36.57,3.67C187.08,184.35,174.16,200.94,162.85,185.67ZM10.72,154.83c-2.35-3.52,1.47-11,1.47-11,1.44,5.89,5.15,5.48,6.44,5.14a.48.48,0,0,1,.46-.15,3.78,3.78,0,0,1-.46.15c-.2.22-.35.73-.13,1.91.44,2.35,5.14,3.08,5.14,3.08C19.24,158.51,13.07,158.36,10.72,154.83Zm23.06,15.86c3.08,6.9,1.32,13.66.88,16s-4.41,12-13.8,12,0-12.34,0-12.34A30.79,30.79,0,0,0,33.78,170.69ZM30.25,154.1a15.57,15.57,0,0,1,1.32,8.22c-.44,5-7.78,10.57-13.8,9.1S16,159.83,16,159.83A19.17,19.17,0,0,0,30.25,154.1ZM63.44,39.85C72.91,11,102.06,10.69,115.86,20c14.32,9.69,35.46,26,35.46,26-9-3.34-22.87-13.79-29-18.63a34.94,34.94,0,0,0-9-5.23C82.75,10.4,63.44,39.85,63.44,39.85Zm43-7.27C84.14,31.26,69.83,59.24,69.83,59.24c1.32-4.19,1-16.87,15.42-26.43,13.66-9,28.19-9.69,49.56,9.47s37,15.42,37,15.42C151.11,66.95,128.64,33.91,106.39,32.58Z"/><path class="cls-1" d="M160.33,106.08c-3.22-1.3-16-6.16-30.1-6.94s-21.78,5.53-24.52,8.12a2.66,2.66,0,0,1-2.19.7c-2-.27-5.79-.75-8.43-.8s-6.46.53-8.43.8a2.66,2.66,0,0,1-2.19-.7c-2.73-2.59-10.39-8.91-24.52-8.12s-26.88,5.64-30.1,6.94a1.24,1.24,0,0,0-.78,1.16v4.37a1.26,1.26,0,0,0,1.07,1.23,5.18,5.18,0,0,1,3,1.45c-.28,4.89-.21,12.43,1.33,17.39s5.45,15.79,19.35,18,22.77-3.28,29.34-11.94c5.62-7.41,5.82-19.23,5.76-22.48a1.32,1.32,0,0,1,1-1.32,36.09,36.09,0,0,1,10.28,0,1.32,1.32,0,0,1,1,1.32c-.06,3.25.14,15.07,5.76,22.48,6.57,8.66,15.44,14.11,29.34,11.94s17.81-13,19.35-18,1.61-12.5,1.33-17.39a5.18,5.18,0,0,1,3-1.45,1.26,1.26,0,0,0,1.07-1.23v-4.37A1.24,1.24,0,0,0,160.33,106.08Zm-76,24.11c-2.1,5.87-6.25,11.6-16,15.72-8.18,3.45-18.3,1.43-23.33-2.48s-8.33-8.82-9.5-18.09C34.32,115.9,38.44,108,41,106.47s7.26-4.54,17.6-5c6.85-.28,15.93.87,23.26,6.85S85.59,126.75,84.37,130.19Zm70.31-4.85c-1.17,9.27-4.47,14.18-9.5,18.09s-15.15,5.93-23.33,2.48c-9.78-4.12-13.94-9.85-16-15.72-1.23-3.43-4.85-15.85,2.48-21.83s16.41-7.12,23.26-6.85c10.34.42,15,3.42,17.6,5S155.86,115.9,154.68,125.33Z"/><path class="cls-1" d="M145,151.95c-1.26,8.65-4.21,24.56-10.32,32.13l-.24.3c-8.85,11-21.87,30.67-40.78,29.91-16.11-.64-31.84-19-40.69-29.91l-.24-.3c-6.21-7.69-9.16-24-10.38-32.52A17.51,17.51,0,0,1,40.13,150c.43,3.92,3,24.69,11.39,35,9.25,11.45,25.77,30.32,42.15,30.84,19.82-.66,32.89-19.38,42.15-30.84,7.9-9.78,10.66-28.86,11.3-34.23C146.27,151.27,145.56,151.65,145,151.95Z"/><path class="cls-1" d="M88,160.42c-.55.42-.51,2.79,4.33,3.3s7-1.17,7.86-3.3c0,0-4.48,2.79-7.93,1S89.18,159.54,88,160.42Z"/><path class="cls-1" d="M104,179.14c-4.48-.59-9.13,1.84-9.13,1.84-8.57-4.07-14,.07-17.23,1.54a7.88,7.88,0,0,1-6.24,0c1.69,3.16,9,9.25,13.07,11.45s6.93.57,10.79-.06c2.72-.45,2.59.41,5.73.21,5.12-.32,9.4-4.85,11.82-6.53s4.92-6,4.92-6C110.26,184.28,108.49,179.73,104,179.14Zm-22.25,2.94c6.31-3.52,12.81.29,12.81.29s4.44-3,8.41-2.2,6.53,3.59,10.13,3.3c0,0-3.37,2.09-9.91,2.09-4.11,0-5.21.92-8.41-1.13a11.59,11.59,0,0,1-3.12,1.24c-1.69.37-6.31.67-15.2-1.46A31.06,31.06,0,0,0,81.77,182.08Zm22.61,10c-4.33,2.28-6.54.29-8.74.29s-3.45,1.69-7.2,1.54-14.17-9.47-14.17-9.47a41.52,41.52,0,0,0,18.5,2.42,3.84,3.84,0,0,0,2.11-1.29,5.13,5.13,0,0,0,1.64,1.14c1.1.51,7.86.07,11.38-.37a18.9,18.9,0,0,0,6.83-2.57C112.75,186.78,108.71,189.79,104.38,192.07Z"/><path class="cls-1" d="M67.22,118.4l-5.51,5.26L64,116.4a7.55,7.55,0,0,0-2.24-.37,7.67,7.67,0,1,0,5.51,2.37Z"/><path class="cls-1" d="M131.54,118.4,126,123.66l2.24-7.26A7.55,7.55,0,0,0,126,116a7.67,7.67,0,1,0,5.51,2.37Z"/></g></g></svg>