<svg xmlns="http://www.w3.org/2000/svg" viewBox="0 0 244.72 203.02"><defs><style>.cls-1{fill:#2b2e31;}</style></defs><title>Element 28</title><g id="Ebene_2" data-name="Ebene 2"><g id="Layer_1" data-name="Layer 1"><path class="cls-1" d="M182.79,103.47c-3.22-1.3-16-6.16-30.1-6.94s-21.78,5.53-24.52,8.12a2.66,2.66,0,0,1-2.19.7,84.61,84.61,0,0,0-8.43-.8,84.61,84.61,0,0,0-8.43.8,2.66,2.66,0,0,1-2.19-.7c-2.73-2.59-10.39-8.91-24.52-8.12s-26.88,5.64-30.1,6.94a1.24,1.24,0,0,0-.78,1.16V109a1.26,1.26,0,0,0,1.07,1.23,5.18,5.18,0,0,1,3,1.45c-.28,4.89-.21,12.43,1.33,17.39s5.45,15.79,19.35,18,22.77-3.28,29.34-11.94c5.62-7.41,5.82-19.23,5.76-22.48a1.32,1.32,0,0,1,1-1.32,36.09,36.09,0,0,1,10.28,0,1.32,1.32,0,0,1,1,1.32c-.06,3.25.14,15.07,5.76,22.48,6.57,8.66,15.44,14.11,29.34,11.94s17.81-13,19.35-18,1.61-12.5,1.33-17.39a5.18,5.18,0,0,1,3-1.45,1.26,1.26,0,0,0,1.07-1.23v-4.37A1.24,1.24,0,0,0,182.79,103.47Zm-76,24.11c-2.1,5.87-6.25,11.6-16,15.72-8.18,3.45-18.3,1.43-23.33-2.48S59.14,132,58,122.72c-1.19-9.43,2.93-17.32,5.52-18.86s7.26-4.54,17.6-5c6.85-.28,15.93.87,23.26,6.85S108.06,124.14,106.84,127.58Zm70.31-4.85c-1.17,9.27-4.47,14.18-9.5,18.09s-15.15,5.93-23.33,2.48c-9.78-4.12-13.94-9.85-16-15.72-1.23-3.43-4.85-15.85,2.48-21.83S147.17,98.62,154,98.9c10.34.42,15,3.42,17.6,5S178.33,113.29,177.14,122.72Z"/><path class="cls-1" d="M93,117.07l-5.51,5.26,2.24-7.26a7.55,7.55,0,0,0-2.24-.37A7.67,7.67,0,1,0,93,117.07Z"/><path class="cls-1" d="M152.07,117.07l-5.51,5.26,2.24-7.26a7.55,7.55,0,0,0-2.24-.37,7.67,7.67,0,1,0,5.51,2.37Z"/><path class="cls-1" d="M231.07,175.78c-3.3-7-6.61-21.15-11.67-28.86s-17-3.3-17-3.3c.22-2-5.51-7-5.51-7s3.52,0,10.35-4,7.49-12.11,7.49-12.11c-12.34,5.29-15.86-7.27-15.86-7.27,5.95,0,10.13-8.59,10.13-8.59-5.95,1.54-11.89-2.42-11.89-2.42,20-3.74,21.81-17,21.81-17-11,5.51-13.88.22-13.88.22,2.2,0,2-1.1,2-1.1l-2.2-.66c9-1.32,12.56-5.73,12.56-5.73C204.85,79.3,203.75,70.49,202,64.76s2-14.32-12.11-38.33-36.79-24-36.79-24,4.19-2.2-15-2.42a73.89,73.89,0,0,0-33.7,7.93s2.42-2.2-17-2S60.57,17.41,60.57,17.41C38.77,29.74,36.79,48.46,36.79,48.46c-6.61,8.81-4.19,13.88-4.19,17.4s-7,4.63-7,4.63c.44,1.54.66,2.2,6.61,5.95a28.56,28.56,0,0,1,9,9.47c-3.08,3.74-6.17,2.86-8.59,2.64s-4.19-5.29-4.19-5.29a5.51,5.51,0,0,0-2.86,5.51c-4-1.54-7.49-6.83-7.49-6.83-2,4.19.88,9.91.88,9.91a7.43,7.43,0,0,0,0,5.73c4.63,14.32,17.4,13.88,17.4,13.88a13.18,13.18,0,0,1-2.42,2.86s4.85-1.54.88.44A12.43,12.43,0,0,1,28,116.31c1.76,4.19,2.86,3.74,2.86,3.74a12.49,12.49,0,0,1-7.49,4.85c5.29,5.73,18.94,4,18.94,4a8.21,8.21,0,0,0,1.32,3.74c-1.54,1.54-1.32,4.41-1.32,4.41-27.53,2.86-32.82,20.71-34.36,30.84S0,188.78,0,188.78s.66-.88,5.73-2.42,25.55,12.78,41.85.44S57.49,152,57.49,152l3.74.22,2.42-2.64s-8.15,2.86-14.76-13.88a16.44,16.44,0,0,1,3.52-17.84c-8.37-.44-6.83-8.81-6.83-8.81a3.37,3.37,0,0,0,3.74-2.2C43,102.43,44.72,98,44.72,98c10.79,5.95,20.71,3.3,32.38-2.86s15.42-26.87,22-33,15-1.76,15-1.76,1.1-1.1,5.29-5.73S130.18,64.76,139,78.42s17.84,18.5,26.21,20.93S188.55,104,188.55,104v8.15c0,3.08-1.1,3.74-2.2,3.74a1.79,1.79,0,0,0-1.54,1.1,27.15,27.15,0,0,1,2.42,15.42c-1.32,8.37-9.47,15-10.79,15.64s.66,3.08,2.2,2.86,5.95-3.74,6.39-5.07,4.19.88,3.3,2.42,3.3,7.27,3.3,7.27-3.74,11.45,2.2,26.21S217.41,198,217.41,198c14.32,1.76,27.31-14.1,27.31-14.1C240.1,183.93,234.37,182.83,231.07,175.78ZM113.22,17s22-27.7,64.2-1.17c-2.34-1.39-38.76-22.4-61.77,3.82C115.64,19.61,112.56,20.27,113.22,17ZM44.94,84.81s7.27,14.1,26.43-.88C71.37,83.93,53.31,104,44.94,84.81ZM64.32,53.53C92.07,9,120.71,35,120.71,35c2.2,2-.66,2.86-.66,2.86C91,17.41,64.32,53.53,64.32,53.53ZM179.94,94.26c-22.79-.9-28.7-18.82-39.19-38.75-9.86-18.73-22-5.89-24.44-3-.15.19-.3.36-.45.55,0,0,.16-.21.45-.55C132.58,32,143.4,55.29,143.4,55.29c11.55,32.94,29.1,38.26,36.55,39,1.14,0,2.31.06,3.54,0A16.48,16.48,0,0,1,179.94,94.26Z"/><path class="cls-1" d="M113.51,147.88c-.71-.76-2.2,1.17-.29,2.35s7.34,4.41,13.22-.15C126.44,150.08,117.63,152.29,113.51,147.88Z"/><path class="cls-1" d="M144.2,161.39c.37-.38-2.81,6.47-9.84,10.72-6.31,3.82-16.76,7-18.65,2.5-1.62-3.82,2.26-1.62,6.9-2.64C131.28,170.05,135,171.08,144.2,161.39Z"/><path class="cls-1" d="M117.63,183.42s-1.32-2.79,1.62-2.94a49.88,49.88,0,0,1,10.43,1.17s-6.17-.59-8.08,0S119.83,184,117.63,183.42Z"/><path class="cls-1" d="M174.6,154.19a38,38,0,0,0-.44-6.46l-3.23.08c.09,1.29.22,3.42.3,6.36.14,5.1-.55,10.89-3.45,15s-12,13.78-23.71,22.74-18.33,9-31,7-37.49-23-41.76-26.88c-3.56-3.22-3.29-17.21-3.1-21.79l-3.29.08s-1.32,18.8,3.23,22.91,31,26.58,44.49,28.64,20.56,2.06,33-7.49,22.17-19.82,25.26-24.23S174.75,159.63,174.6,154.19Z"/><circle class="cls-1" cx="116.52" cy="126.81" r="0.95"/><circle class="cls-1" cx="123.65" cy="136.57" r="0.88"/><circle class="cls-1" cx="111.97" cy="138.7" r="0.81"/><circle class="cls-1" cx="104.56" cy="144.5" r="0.88"/><circle class="cls-1" cx="130.69" cy="144.65" r="0.88"/></g></g></svg>