<svg xmlns="http://www.w3.org/2000/svg" viewBox="0 0 162.9 220.48"><defs><style>.cls-1{fill:#2b2e31;}</style></defs><title>Element 16</title><g id="Ebene_2" data-name="Ebene 2"><g id="Layer_1" data-name="Layer 1"><path class="cls-1" d="M25.71,108.76l-8.37,1.47S1.92,88.78.16,68.52s11.16-49.34,33-43.47c0,0,10.72-15.86,40.38-20.71S156.26-9.75,161,32.84c0,0,6.31,17.77-3.82,33,0,0,9.69,27.17-3.08,45.23,0,0-4.11-1-6.46-1.32,0,0,2.79-20.12-3.52-32.31S119.25,59,104.28,57.95s-47.73,3.23-54.33,5.29c0,0-3.08-3.52-6.75-8.22,0,0,3.67,7.2,4,8.66C47.15,63.67,18.52,71.31,25.71,108.76Z"/><path class="cls-1" d="M12.79,123.44s-9.1-2.35-6.9,11,7,20.85,7,20.85-9.1-25.7-1.76-28.93C11.17,126.38,13.67,127.11,12.79,123.44Z"/><path class="cls-1" d="M15.87,159.71s4.85,6.75,9.4-2.94c0,0,1-.88.88,0S21.75,170.43,15.87,159.71Z"/><path class="cls-1" d="M16.9,157.8s-5.87,4.55-6,9.55,5.73,7.2,5.87-3.08c0,0,3.52,1.32,3.82,8.08s-4,16.45-11.89,15.57-6.9-13.07-3.08-20.71S14.55,154.43,16.9,157.8Z"/><path class="cls-1" d="M150.68,156s4.85,6,4.85,10.87-2.2,5-4.85,4.41-3.82-4-1.91-8.66c0,0-6,2.06-4.11,11.89s9.55,17,14.24,10.13,3.23-12,.44-20.12S154.5,153.4,150.68,156Z"/><path class="cls-1" d="M158.9,120.65c-.53-.83-1.76,3.38-1,4.55s1.91,15.86-3.23,27.31C154.64,152.52,167,133.43,158.9,120.65Z"/><path class="cls-1" d="M140.29,158.13h-1.42c0,14.17-5.34,23.9-15.25,35.66-10.3,12.23-21.25,24.47-39.27,25.11S43,187.34,35.52,176.5A27.66,27.66,0,0,1,30.58,157H29.49s-3,8.81,4.74,19.93,31.61,44.16,50.11,43.5,29.74-13.22,40.31-25.77S140.73,173.66,140.29,158.13Z"/><path class="cls-1" d="M92.38,169.81s-5.4,5.73-11.56,2c0,0-1.43.11-.55,1.21S88.09,177.08,92.38,169.81Z"/><path class="cls-1" d="M99.76,191.17s-5.18,3.85-11.12,3.63-10.57-1.1-10.9,1.1S91.83,200.21,99.76,191.17Z"/><path class="cls-1" d="M155.1,112.51c-15.08-3-38.35-6.26-48.69-4.38-10.77,2-13.46,3.08-14.66,5.33s-5.15,2.36-7,2.46c-1.86-.09-5.8-.2-7-2.46s-6.06-3.49-16.92-4.9c-12.42-1.61-31.35.93-46.44,3.94a2.23,2.23,0,0,0-1.79,2.23,74.33,74.33,0,0,0,1.13,11.59,2.26,2.26,0,0,0,2.34,1.85l4-.23s1.35,10.25,3.35,18.71c2.18,9.22,8.31,11.61,22.81,11.44s21-.28,25.77-8.49,6.51-17.92,12.75-17.95c5.92-.08,8,9.73,12.75,17.95s11.28,8.33,25.77,8.49,20.63-2.23,22.81-11.44c2-8.46,3.35-18.71,3.35-18.71l4,.23a2.26,2.26,0,0,0,2.34-1.85,74.33,74.33,0,0,0,1.13-11.59A2.23,2.23,0,0,0,155.1,112.51ZM71,141.45c-4.61,11.18-15.69,11.08-28.18,10.68s-13-5.47-14.87-12.26-5.34-20.68,3.68-23.41,22.82-2.16,31.23-1.2,13.38,4.5,13.2,8.34S75.58,130.26,71,141.45Zm70.59-1.58c-1.86,6.79-2.38,11.86-14.87,12.26s-23.57.51-28.18-10.68-4.87-14.13-5.05-17.86,4.79-7.37,13.2-8.34,22.2-1.54,31.23,1.2S143.42,133.08,141.56,139.86Z"/><path class="cls-1" d="M57.36,127l-5.51,5.26L54.09,125a7.56,7.56,0,0,0-2.24-.37A7.67,7.67,0,1,0,57.36,127Z"/><path class="cls-1" d="M123.44,127l-5.51,5.26,2.24-7.26a7.56,7.56,0,0,0-2.24-.37,7.67,7.67,0,1,0,5.51,2.37Z"/></g></g></svg>