<svg xmlns="http://www.w3.org/2000/svg" viewBox="0 0 187.23 209.48"><defs><style>.cls-1{fill:#2b2e31;}</style></defs><title>Element 15</title><g id="Ebene_2" data-name="Ebene 2"><g id="Layer_1" data-name="Layer 1"><path class="cls-1" d="M162.85,185.67s-10.28-11.45.59-23.2c0,0,10.43,6.17,15.42-5.73,0,0-8.81-1.17-9.69-10.43a8.8,8.8,0,0,0,7.64-7s-3.23.88-7.34-3.23c0,0,17.33-.59,14.54-18.5,0,0-2.5,4.41-6,5.73,0,0,5.87-8.22-6.46-16.74,0,0,15-15.86,15.71-32.75,0,0-2.79,2.64-5.87,5.29,0,0,4.41-6.61,5.29-11.89a49,49,0,0,1-17,10s11.31-5,6-26.29c0,0-1.47-3.52-6.46-5.87,0,0,3.38-7.64-2.64-11.6,0,0-5,1.91-8.37-2.35s-7.34-7.78-9.1-9.84-5.73-11.6-15-15.86-12.92-2.79-15.42-1.91c0,0-5.43-2.5-14.54,2.5,0,0-3.08-6.61-15.71-5.87S70.49,5.78,65.93,9.9a4.38,4.38,0,0,0-5.14-.29c-2.79,1.76-2.64,2.94-2.64,2.94s-7.2.15-6.61,9c0,0-7.2-6-16.45-4S24.38,32.36,24.38,32.36s-2.35-.15-5.73,3.38-7.49,5.58-11.16,3.67c0,0-.15,9.4,3.52,10.43,0,0,1.32,2.06.29,2.5S5.29,55.71,0,53.8a14.62,14.62,0,0,0,10.13,4.85,9.7,9.7,0,0,0-2.79,2.64s-.88-.44-1.62-2.5a6.1,6.1,0,0,0-.15,4.41s-2.2,2.94-1.32,7.93c0,0-3.08-1.47-3.52-2.79,0,0-.15,8.52,4.7,13.07s7,4.55,7,4.55a4.64,4.64,0,0,0,.88,3.23s-3.23.29-4.26,1.62A19.68,19.68,0,0,0,7.2,94s-3.38-3.52-3.38-7c0,0-5.87,11.89,4.7,20.27,0,0-2.2,12.63,7.64,16,0,0,1.61,1.62,5.73.44,0,0,4.11,1.91,4,2.94s-4.11,4-4.11,2.94,0-1.62-.59-1.62-4,2.5-5.29,5.29-2.64,7.78-3.52,7.49S5.14,135.16,11,128c0,0-12,6.61-6.9,13.51a6.15,6.15,0,0,0,5.14,2.2S.59,157.33,13.8,160.27c0,0-8.37,5.29-5.87,15.13s5.29,7.34,5.29,7.34,1.76,4-2.06,4c0,0,.29,1.76,1.32,1.91s-1.76,4.11-1,7.2,4.7,9.25,16,3.52,16-21.29,10.28-31.87c0,0,4.41-7.78-4-19.53,0,0,3.38-5.73-2.06-17.18a9.1,9.1,0,0,1-1.47-5.14c-.15-3.52-4.85-17.77.29-22.76s10.72-3.52,10.72-3.52-5.58-2.5-4.55-12.78S41.56,56,63.44,62.47c0,0,12,27.9,49.34,32.75s45.08,4.11,45.08,4.11.88,6.61,7.64,7.78c0,0-13.07,12.92-2.79,24.52,0,0-2.5,2.79-1.62,5.14,0,0-8.08,5.14-3.82,14.83,0,0-13.07,10.72-6.75,29.08s31.43,22.32,36.57,3.67C187.08,184.35,174.16,200.94,162.85,185.67ZM10.72,154.83c-2.35-3.52,1.47-11,1.47-11,1.44,5.89,5.15,5.48,6.44,5.14a.47.47,0,0,1,.46-.15,3.79,3.79,0,0,1-.46.15c-.2.22-.35.73-.13,1.91.44,2.35,5.14,3.08,5.14,3.08C19.24,158.51,13.07,158.36,10.72,154.83Zm23.06,15.86c3.08,6.9,1.32,13.66.88,16s-4.41,12-13.8,12,0-12.34,0-12.34A30.79,30.79,0,0,0,33.78,170.69ZM30.25,154.1a15.57,15.57,0,0,1,1.32,8.22c-.44,5-7.78,10.57-13.8,9.1S16,159.83,16,159.83A19.18,19.18,0,0,0,30.25,154.1ZM63.44,39.85C72.91,11,102.06,10.69,115.86,20c14.32,9.69,35.46,26,35.46,26-9-3.34-22.87-13.79-29-18.63a34.94,34.94,0,0,0-9-5.23C82.75,10.4,63.44,39.85,63.44,39.85Zm43-7.27C84.14,31.26,69.83,59.24,69.83,59.24c1.32-4.19,1-16.87,15.42-26.43,13.66-9,28.19-9.69,49.56,9.47s37,15.42,37,15.42C151.11,66.95,128.64,33.91,106.39,32.58Z"/><path class="cls-1" d="M102.1,147.46s-6.5,4.07-12.89.66c0,0-1.32.33-.33,1.32S97.25,152.63,102.1,147.46Z"/><path class="cls-1" d="M149.72,144.26l-1.21,1.32c.22,12.67-3,16.85-4.63,20.15s-5.84,7.16-13,15-20.26,19.71-26.1,23.79a21.91,21.91,0,0,1-10,3.68,21.91,21.91,0,0,1-10-3.68c-5.84-4.07-18.94-16-26.1-23.79s-11.34-11.67-13-15-4.85-7.49-4.63-20.15l-1.21-1.32s-1.1,14,5.73,23.46,33,36.57,43.94,40.86c0,0,1.53.92,5.31.9s5.31-.9,5.31-.9c10.9-4.3,37.12-31.39,43.94-40.86S149.72,144.26,149.72,144.26Z"/><path class="cls-1" d="M89,177.74c-.83-.24-.11,1,1.21,1.54s15.31,3.85,21.81-1.43C112,177.85,102.32,181.6,89,177.74Z"/><path class="cls-1" d="M160.33,106.08c-3.22-1.3-16-6.16-30.1-6.94s-21.78,5.53-24.52,8.13a2.66,2.66,0,0,1-2.19.7,84.64,84.64,0,0,0-8.43-.8,84.64,84.64,0,0,0-8.43.8,2.66,2.66,0,0,1-2.19-.7c-2.73-2.59-10.39-8.91-24.52-8.13s-26.88,5.64-30.1,6.94a1.24,1.24,0,0,0-.78,1.16v4.37a1.26,1.26,0,0,0,1.07,1.23,5.18,5.18,0,0,1,3,1.45c-.28,4.89-.21,12.43,1.33,17.39s5.45,15.79,19.35,18,22.77-3.28,29.34-11.94c5.62-7.41,5.82-19.23,5.76-22.48a1.32,1.32,0,0,1,1-1.32,36.08,36.08,0,0,1,10.28,0,1.32,1.32,0,0,1,1,1.32c-.06,3.25.14,15.07,5.76,22.48,6.57,8.66,15.44,14.11,29.34,11.94s17.81-13,19.35-18,1.61-12.5,1.33-17.39a5.18,5.18,0,0,1,3-1.45,1.26,1.26,0,0,0,1.07-1.23v-4.37A1.24,1.24,0,0,0,160.33,106.08Zm-76,24.11c-2.1,5.87-6.25,11.6-16,15.72-8.18,3.45-18.3,1.43-23.33-2.48s-8.33-8.82-9.5-18.09C34.32,115.9,38.44,108,41,106.47s7.26-4.54,17.6-5c6.85-.28,15.93.87,23.26,6.85S85.59,126.75,84.37,130.19Zm70.31-4.85c-1.17,9.27-4.47,14.18-9.5,18.09s-15.15,5.93-23.33,2.48c-9.78-4.12-13.94-9.85-16-15.72-1.23-3.43-4.85-15.85,2.48-21.83s16.41-7.12,23.26-6.85c10.34.42,15,3.42,17.6,5S155.86,115.9,154.68,125.33Z"/><path class="cls-1" d="M70.27,118.73,64.76,124,67,116.73a7.56,7.56,0,0,0-2.24-.37,7.67,7.67,0,1,0,5.51,2.37Z"/><path class="cls-1" d="M131.07,118.73,125.55,124l2.24-7.26a7.56,7.56,0,0,0-2.24-.37,7.67,7.67,0,1,0,5.51,2.37Z"/></g></g></svg>