<svg xmlns="http://www.w3.org/2000/svg" viewBox="0 0 210.43 202.01"><defs><style>.cls-1{fill:#2b2e31;}</style></defs><title>Element 19</title><g id="Ebene_2" data-name="Ebene 2"><g id="Layer_1" data-name="Layer 1"><path class="cls-1" d="M177.7,96.68c-15.08-3-38.35-6.26-48.69-4.38-10.77,2-13.46,3.08-14.66,5.33s-5.15,2.36-7,2.45c-1.86-.09-5.8-.2-7-2.45s-6.06-3.49-16.92-4.9C71,91.13,52.06,93.67,37,96.68a2.23,2.23,0,0,0-1.79,2.23,74.31,74.31,0,0,0,1.13,11.59,2.26,2.26,0,0,0,2.34,1.85l4-.23S44,122.37,46,130.83c2.18,9.22,8.31,11.61,22.81,11.44s21-.28,25.77-8.49,6.51-17.92,12.75-17.95c5.92-.08,8,9.73,12.75,17.95s11.28,8.33,25.77,8.49,20.63-2.23,22.81-11.44c2-8.46,3.35-18.71,3.35-18.71l4,.23a2.26,2.26,0,0,0,2.34-1.85,74.31,74.31,0,0,0,1.13-11.59A2.23,2.23,0,0,0,177.7,96.68ZM93.56,125.61C89,136.8,77.87,136.69,65.38,136.29s-13-5.47-14.87-12.26-5.34-20.68,3.68-23.41S77,98.46,85.42,99.42s13.38,4.5,13.2,8.34S98.18,114.43,93.56,125.61ZM164.16,124c-1.86,6.79-2.38,11.86-14.87,12.26s-23.57.51-28.18-10.68-4.87-14.13-5.05-17.86,4.79-7.37,13.2-8.34,22.2-1.54,31.23,1.2S166,117.25,164.16,124Z"/><path class="cls-1" d="M177.1,113.69S168.73,145,189,158.18a12,12,0,0,1-11.31-1.62s-.88,9.84,10.43,16.59c0,0-9.55,4.41-20.12-9a22.45,22.45,0,0,0,3.67,12.92s-18.5-7.49-19.09-14.1c-.09-1,4.41-10.57,4-19.68,0,0,7.78-.29,10.72-5a27.87,27.87,0,0,0,3.52-10.43c.73-4.41,2.35-14.24,2.35-14.24Z"/><path class="cls-1" d="M183.85,62.44c-8.66-10.57-22.76-35.83-32.31-46.11s-55.66-32.89-94.72,4c0,0-32.16-2.08-36.57,29.06S25,118.68,25,127.49,22.32,157.74.44,143.35c0,0-2.35,4,3.82,7.2,0,0,6.31,17.18,25.26,7.93,0,0-3.23,10.43-14.1,12.78,0,0,.88,4.26,10,2.35,0,0,5.31,4.26,9.77-.15a23.06,23.06,0,0,0,5.79-9s3.82.15,5.58-2.06,5-4.55,4-2.2-4.7,7.2-3.23,7,4.85-4,5.87-4,2.06,2.06.73,3.82.15,2.35,1.76,1.32,3.08-2.06,3.08-2.06-6-8.74-5-24.12c0,0-6.31-1.43-7.78-7.16s-4.55-21.44-4.55-21.44-5.56,1.47-6.23-.73-2.73-15.86-2-17,14.24-4.09,17.47-4.18c0,0-6.9-26.22,11.6-25.34,0,0-.55-8.61,10.72-4.7,0,0-1.32-6.75,18.5,9.55,10.43,8.58,18.59,15.77,29.58,20.64,2.6-.8,7.33-1.71,15.6-1.84-5.51-1.68-9.94-3.39-12.55-4.41C112.66,81.21,75,50.4,75,50.4l-.6-2a2.53,2.53,0,0,1,3-3.2c14.07,3.78,23,22.29,52.49,38.1,32.31,17.33,72-5.58,72-5.58C195,88.08,185,92.79,174.41,94.33c4,.8,7.32,1.54,9.42,2,19.71-4.78,25.14-16.07,26.6-26.86C210.43,69.49,192.52,73,183.85,62.44Z"/><path class="cls-1" d="M101.48,151.12c-.3-.2-.72.18-.06.72a4.87,4.87,0,0,0,5.07.84s1-1.25-.54-1A6.08,6.08,0,0,1,101.48,151.12Z"/><path class="cls-1" d="M119.25,171.88a20.51,20.51,0,0,1-6.42-1.09c-2.12-.61-3.69-1.5-4.16-.82a3.71,3.71,0,0,1-3.89,1.84c-2.18-.48-4-2-4.78-2s-6.69,1.91-10,1.91-3.89.2-5-.14c0,0,7.78,3.48,8.74,5.67s2.94,3.48,7.65,2.8,3.55-.61,5.26-.61,6.28.82,8.46.27,4.37-3.89,5.26-4.92,6.55-3.69,6.55-3.69A53.81,53.81,0,0,1,119.25,171.88Zm-2.12,5.46c-2,2-3.82,1.64-7,1.3a43.2,43.2,0,0,0-9.83.07c-4,.41-3.62-.41-5-2.59s-5.67-3.48-5.67-3.48c3-.2,9.76-2,10.38-2s2.87,2.46,5.26,2.53,3.62-2,4-2.32,2,.91,6.21,1.71,6.62,0,6.62,0C120.21,173.38,119.12,175.36,117.14,177.34Z"/><path class="cls-1" d="M56.26,145.45c.12-.72.72-.12.84.6s.6,15.63,7.64,23.86,18.37,17.66,23.51,22,10.26,9.55,16.58,9.19,9.67-1.66,16.23-7.87c6.8-6.44,18.61-18.85,24.46-25.89,5.52-6.65,7-13.12,7.16-16.82s-.48-5.13.24-6.32,1.07-1,1.19,1A26.11,26.11,0,0,1,149,164.66c-7.13,9.39-16.47,19-24.7,27.56S111.17,202,104.1,202c-8.23,0-9.43-3-21.24-13.12s-22-17.9-24.22-26S55.78,148.31,56.26,145.45Z"/><path class="cls-1" d="M85.05,171.61s12-7.07,15.3-6.86,2.44,1.33,4.75,1.13,3.54-2.16,7-1.13,9.32,5.91,14.85,6.39l-1.84.48s-11.88-5.94-14.85-5.94c-2.55,0-3.47,1-5.18,1.23-3.71.45-4.66-1.36-7.83-.25-4,1.43-10.2,5.92-10.95,5.56Z"/><path class="cls-1" d="M81.47,111.12,76,116.38l2.24-7.26a7.56,7.56,0,0,0-2.24-.37,7.67,7.67,0,1,0,5.51,2.37Z"/><path class="cls-1" d="M142.26,111.12l-5.51,5.26,2.24-7.26a7.56,7.56,0,0,0-2.24-.37,7.67,7.67,0,1,0,5.51,2.37Z"/></g></g></svg>