<svg xmlns="http://www.w3.org/2000/svg" viewBox="0 0 160.91 210.21"><defs><style>.cls-1{fill:#2b2e31;}</style></defs><title>Element 21</title><g id="Ebene_2" data-name="Ebene 2"><g id="Layer_1" data-name="Layer 1"><path class="cls-1" d="M150.7,102c-4.31-2.49-17.86-9.08-37-6.69-15.72,2-25,5.32-29.34,7.3a7.48,7.48,0,0,1-6.2,0c-4.37-2-13.62-5.34-29.34-7.3-19.11-2.39-32.65,4.2-37,6.69a2.36,2.36,0,0,0-1.12,2.54l1.5,7.05A2.38,2.38,0,0,0,15,113.42l.79-.15s2.24,12.46,4.7,19.43c4.13,11.7,15.9,16.67,28.76,15.21s17.24-6.28,21.48-15.2,5.11-14.91,10.52-15.05c5.41.15,6.28,6.14,10.52,15.05s8.62,13.74,21.48,15.2,24.63-3.51,28.76-15.21c2.46-7,4.7-19.43,4.7-19.43l.79.15a2.38,2.38,0,0,0,2.77-1.84l1.5-7.05A2.36,2.36,0,0,0,150.7,102ZM60.87,139.86c-7.23,5.37-34.09,10.67-38.76-14.91-.91-5-3.11-14.69-.58-17.54s12.71-7.78,27.4-6.69,22.14,8.77,21.81,14.91S68.11,134.49,60.87,139.86ZM140.48,125c-4.68,25.57-31.53,20.28-38.76,14.91s-9.54-18.09-9.86-24.22,7.12-13.81,21.81-14.91,24.88,3.84,27.4,6.69S141.4,120,140.48,125Z"/><path class="cls-1" d="M11.89,100s-2.53,1-4.07,0c0,0,3.19-4.63,3.41-8.59s.88-9.8.66-14a2.53,2.53,0,0,0-2,1.87S9.14,73.24,13.66,66A23.76,23.76,0,0,0,7.82,76.1,17.91,17.91,0,0,1,8.59,63,7.88,7.88,0,0,0,5.4,68.06a14.14,14.14,0,0,1,1.87-8.59,12.63,12.63,0,0,0-3.74,4S.33,48.35,17.73,33.7c0,0-9.69,6.06-13.33,11.12,0,0,3.63-28.75,28.64-24A35.15,35.15,0,0,1,55.29,5.18s-3.74,5.51-2.09,8.48C53.2,13.66,63.66.22,85.14,0c0,0-10.35,8-10.79,16.08,0,0,10.79-12.11,24.78-15.2,0,0-4.85,10.35-1.32,12s15.42-9.25,15.42-9.25,1.43,5.73-3.52,11.45a27.41,27.41,0,0,0,12.11-6.83s-2.75,8.81,0,7.71,8.81-9.25,21.92-11.34c0,0-11.89,11-6.06,11.34S155.18,5.51,155.18,5.51l-2.09,3.08,3.63-1-3.63,6.06,2.86.44s-8.81,12.34-7.27,36.12,1.89,39.09,1.76,50.22a60.06,60.06,0,0,0-9.25-4.19S142,69.94,137.45,64,113.91,45.16,81.29,42.73c0,0-15.32-1.1-29.2,7.49,0,0-13.44,7.93-19.71-2.42,0,0,3.3,7.27-1.54,10.68S18.39,62.56,18.94,77.43s1.32,19.82,1.32,19.82S15,99.66,11.89,100Z"/><path class="cls-1" d="M149.9,114.54s-1.65,10.13,6.83,12.89a8.25,8.25,0,0,1-4.3,2.75s-3,4.19-.55,12.89a3.43,3.43,0,0,1-2.11,2.2s-.09,18.5,11.14,12.89c0,0-6.17,7.38-12.78,0S145.82,136,145.82,136s-1.87,1.1-2.86,7a33.82,33.82,0,0,1,1.54-12.89c2.2-6.28,3.08-15.64,3.08-15.64S147.58,115.31,149.9,114.54Z"/><path class="cls-1" d="M151.89,108.15l-.67,2.42s3.08,2.2.66,11.67a2.58,2.58,0,0,0,1.43,2S158.28,110.8,151.89,108.15Z"/><path class="cls-1" d="M11.78,114.65S14.32,131.39,0,135.47c0,0,3,5.62,9.58.66,0,0-4.08,25.88,10.24,35.13,0,0-8.81-13.88-4.74-29.52,0,0,4.07,5.84,7,2.75,0,0-5.62.77-5.62-5.51a67.55,67.55,0,0,1,1.21-12.11l-3-12.23A3.44,3.44,0,0,1,11.78,114.65Z"/><path class="cls-1" d="M9.8,113.55s1.21-3.74-.55-6.06S1.76,107.82.88,116s3.41,16.3,3.41,16.3a6.87,6.87,0,0,0,2-1.65s-4.18-4.39-4-14.65c.11-5.29,6.28-12.78,6.06-2.09C8.37,113.88,8.7,116.3,9.8,113.55Z"/><path class="cls-1" d="M131.37,146.31c-1.26,8.65-4.21,24.56-10.32,32.13l-.24.3c-8.85,11-21.87,30.67-40.78,29.91-16.11-.64-31.84-19-40.69-29.91l-.24-.3c-6.21-7.69-9.16-24-10.38-32.52a17.51,17.51,0,0,1-2.17-1.57c.43,3.92,3,24.69,11.39,35,9.25,11.45,25.77,30.32,42.15,30.84,19.82-.66,32.89-19.38,42.15-30.84,7.9-9.78,10.66-28.86,11.3-34.23C132.68,145.63,132,146,131.37,146.31Z"/><path class="cls-1" d="M74.42,154.78c-.55.42-.51,2.79,4.33,3.3s7-1.17,7.86-3.3c0,0-4.48,2.79-7.93,1S75.59,153.9,74.42,154.78Z"/><path class="cls-1" d="M90.42,173.5c-4.48-.59-9.13,1.84-9.13,1.84-8.57-4.07-14,.07-17.23,1.54a7.88,7.88,0,0,1-6.24,0c1.69,3.16,9,9.25,13.07,11.45s6.93.57,10.79-.06c2.72-.45,2.59.41,5.73.21,5.12-.32,9.4-4.85,11.82-6.53s4.92-6,4.92-6C96.66,178.64,94.9,174.09,90.42,173.5Zm-22.25,2.94c6.31-3.52,12.81.29,12.81.29s4.44-3,8.41-2.2,6.53,3.59,10.13,3.3c0,0-3.37,2.09-9.91,2.09-4.11,0-5.21.92-8.41-1.13A11.59,11.59,0,0,1,78.09,180c-1.69.37-6.31.67-15.2-1.46A31.06,31.06,0,0,0,68.17,176.44Zm22.61,10c-4.33,2.28-6.53.29-8.74.29s-3.45,1.69-7.2,1.54-14.17-9.47-14.17-9.47a41.52,41.52,0,0,0,18.5,2.42,3.83,3.83,0,0,0,2.11-1.29,5.13,5.13,0,0,0,1.64,1.14c1.1.51,7.86.07,11.38-.37a18.9,18.9,0,0,0,6.83-2.57C99.16,181.14,95.12,184.15,90.79,186.42Z"/><path class="cls-1" d="M56.95,116.55l-5.51,5.26,2.24-7.26a7.56,7.56,0,0,0-2.24-.37,7.67,7.67,0,1,0,5.51,2.37Z"/><path class="cls-1" d="M116,116.55l-5.51,5.26,2.24-7.26a7.56,7.56,0,0,0-2.24-.37,7.67,7.67,0,1,0,5.51,2.37Z"/></g></g></svg>