<svg xmlns="http://www.w3.org/2000/svg" viewBox="0 0 168.93 228.42"><defs><style>.cls-1{fill:#2b2e31;}</style></defs><title>Element 27</title><g id="Ebene_2" data-name="Ebene 2"><g id="Layer_1" data-name="Layer 1"><path class="cls-1" d="M100.94,121.74s14.54,8.08,39.65,7c0,0,1.17-3.38-2.79-5.58S119,114.69,100.94,121.74Z"/><path class="cls-1" d="M162.62,106.32C162.76,102.5,154.1,94,154.1,94c.59-32.89-32.31-50.81-32.31-50.81l47.14-23.79-.59-4.55L116.21,42.29,153.66,2.5,149.4,0,112.57,38.73c.94-1,5.29-6.82-2.38-18.46-8.52-12.92-33.48-3.82-33.48-3.82-3.52-1.62-21.59-9.25-32.6,2.06s5.43,16.15,5.43,16.15a41,41,0,0,0-25.4,27C2.11,65.93-1.56,80.91.5,94s14.1,21.88,14.1,21.88l2.5-1c-6.17-30.25,23.5-27.61,23.5-27.61,15.13,18.36,48.75,28.93,48.75,28.93,1-.15,15.12-6.61,31.72-6.31s29.08,6.31,31.13,7.93c1.5,1.18.41,6.13-.62,9.57a1.91,1.91,0,0,1,.62-.09c1,0,1.54-.44,2,6.94s-3.3,14.65-3.3,14.65c-1-4-1.41-14.46-1.52-17.18a3,3,0,0,1-1.86.22c0,6.76-3.38,15.13-3.38,15.13,3.23,33,16.45,53.6,16.45,53.6a203.34,203.34,0,0,1-7.78-44.79c7.93-14,3.08-25.11,3.08-25.11s.59.44,6-.73,1.91-14.24,1.32-16.45S162.47,110.14,162.62,106.32Z"/><path class="cls-1" d="M27.3,196a130.42,130.42,0,0,1-7.49-30.51c-2-17-4.41-33.7-4.41-33.7s-2.64-.11-3.19-1.87a71,71,0,0,1-2-8.59,7.2,7.2,0,0,0-.33-2S8.57,123.94,8.68,126c0,0-5.84-2.2-7.49,6.61S.75,150.81,10,163.59c0,0-2,25.77-8.26,35.79,0,0,10.13-5.84,12.11-20.6,0,0,5.51,12.23,10.24,20.27a108.84,108.84,0,0,1-3.52-15.31S24.32,192.33,27.3,196ZM4.83,150.48a34.78,34.78,0,0,1-1.32-19.27c.66-3,3-2.72,3.3-1.87,2,6.17.11,12.67-.55,13.66s.44,5.51,1.21,9.91S8,158.85,4.83,150.48Z"/><path class="cls-1" d="M151,118.27c-4.31-2.49-17.86-9.08-37-6.69-15.72,2-25,5.32-29.34,7.3a7.48,7.48,0,0,1-6.2,0c-4.37-2-13.62-5.34-29.34-7.3-19.11-2.39-32.65,4.2-37,6.69a2.36,2.36,0,0,0-1.12,2.54l1.5,7.05a2.38,2.38,0,0,0,2.77,1.84l.79-.15S18.38,142,20.84,149c4.13,11.7,15.9,16.67,28.76,15.21S66.85,157.9,71.09,149s5.11-14.91,10.52-15.05c5.41.15,6.28,6.14,10.52,15.05s8.62,13.74,21.48,15.2,24.63-3.51,28.76-15.21c2.46-7,4.7-19.43,4.7-19.43l.79.15a2.38,2.38,0,0,0,2.77-1.84l1.5-7.05A2.36,2.36,0,0,0,151,118.27ZM61.18,156.15C54,161.52,27.1,166.82,22.42,141.24c-.91-5-3.11-14.69-.58-17.54s12.71-7.78,27.4-6.69S71.38,125.79,71,131.93,68.42,150.78,61.18,156.15Zm79.61-14.91c-4.68,25.57-31.53,20.28-38.76,14.91s-9.54-18.09-9.86-24.22S99.29,118.12,114,117s24.88,3.84,27.4,6.69S141.71,136.25,140.8,141.24Z"/><path class="cls-1" d="M137.37,163.81l-1-.08a39.6,39.6,0,0,1-10.75,32C111,211,91.68,226.52,81.61,226.81c-10.07-.29-29.36-15.77-44-31.12a39.6,39.6,0,0,1-10.75-32l-1,.08s-4.26,17,10.72,32.75,34.73,31.57,45,31.87c10.31-.29,30.07-16.15,45-31.87S137.37,163.81,137.37,163.81Z"/><path class="cls-1" d="M63.55,186.53c-1.2.26-1.32,2-.88,3s2.09,1.32,3.3,0S66.63,185.87,63.55,186.53Z"/><path class="cls-1" d="M76.21,177.39c-1-.68-2.09.77-.66,2.09s6.72,2.61,10.68-1.06C86.23,178.42,80.07,179.93,76.21,177.39Z"/><path class="cls-1" d="M78.63,201.84c-1.88,0-3.7.44-3.78,1.76s15.23,1.32,27.79-9.25C102.64,194.35,90.09,201.62,78.63,201.84Z"/><path class="cls-1" d="M53.71,133.53l-5.51,5.26,2.24-7.26a7.56,7.56,0,0,0-2.24-.37,7.67,7.67,0,1,0,5.51,2.37Z"/><path class="cls-1" d="M118,133.53l-5.51,5.26,2.24-7.26a7.56,7.56,0,0,0-2.24-.37,7.67,7.67,0,1,0,5.51,2.37Z"/></g></g></svg>