<svg xmlns="http://www.w3.org/2000/svg" viewBox="0 0 193.75 218.57"><defs><style>.cls-1{fill:#2b2e31;}</style></defs><title>Element 22</title><g id="Ebene_2" data-name="Ebene 2"><g id="Layer_1" data-name="Layer 1"><path class="cls-1" d="M174.55,114.19a2.21,2.21,0,0,0-1.3-1.53c-6.31-2.76-16.06-9.05-37-8.22-16,.64-26.63,4.5-31.26,6.58a6.44,6.44,0,0,1-5.3,0c-4.63-2.08-15.25-5.94-31.26-6.58-21-.83-30.72,5.46-37,8.22a2.21,2.21,0,0,0-1.3,1.53,11.87,11.87,0,0,0,2.44,9.92,2.16,2.16,0,0,0,1.72.81h2.31s1.17,20.73,11.4,27.75,26.94,6.71,34.64,2.78a21.2,21.2,0,0,0,11.11-13.74c1.9-6.58,1.67-16.08,8.62-16.08,6.2,0,6.72,9.5,8.62,16.08A21.2,21.2,0,0,0,122,155.45c7.7,3.93,24.41,4.24,34.64-2.78s11.4-27.75,11.4-27.75h2.31a2.16,2.16,0,0,0,1.72-.81A11.87,11.87,0,0,0,174.55,114.19ZM91.06,137.65c-1.86,11.18-11.14,19.85-31.24,16-17.76-3.4-18.42-21.45-18.7-24.77-.41-4.93-2.81-16.38,14.09-18.41C72.54,108.39,86.46,112,90.52,116S91.89,132.72,91.06,137.65Zm72.44-8.77c-.27,3.32-.94,21.37-18.7,24.77-20.1,3.85-29.37-4.82-31.24-16-.82-4.93-3.51-17.76.55-21.7s18-7.56,35.29-5.48C166.31,112.5,163.91,124,163.5,128.88Z"/><path class="cls-1" d="M158.08,154l-1-.08a39.6,39.6,0,0,1-10.75,32c-14.63,15.34-33.92,30.83-44,31.12-10.07-.29-29.36-15.77-44-31.12a39.6,39.6,0,0,1-10.75-32l-1,.08s-4.26,17,10.72,32.75,34.73,31.57,45,31.87c10.31-.29,30.07-16.15,45-31.87S158.08,154,158.08,154Z"/><path class="cls-1" d="M84.25,176.68c-1.2.26-1.32,2-.88,3s2.09,1.32,3.3,0S87.34,176,84.25,176.68Z"/><path class="cls-1" d="M96.92,167.54c-1-.68-2.09.77-.66,2.09s6.72,2.61,10.68-1.06C106.94,168.57,100.77,170.07,96.92,167.54Z"/><path class="cls-1" d="M99.34,192c-1.88,0-3.7.44-3.78,1.76s15.23,1.32,27.79-9.25C123.35,184.5,110.8,191.77,99.34,192Z"/><path class="cls-1" d="M187,101.11C190.64,88,199,68.66,189,45.46s-31.16-42-71.84-35.56c0,0-16.89-13.8-52-8.81,0,0-16.3,1.91-22,13.07,0,0-26.14,8.22-34.8,41.56,0,0-5,16.74-4.7,22.17,0,0-6,20.27,1.62,33.33,0,0,.59,8.08-5.29,13.14a7.64,7.64,0,0,0,5.58-3.89s-.15,4.41-1.76,6.76c0,0,4.11-1.76,4.85-5,0,0-.73,8.08-3.67,11.82,0,0,3.67.07,6.9-4.33a9.64,9.64,0,0,1-1,7.34s2.79.44,4.85-3c0,0-1.76,8.74-1.17,12.11a18.35,18.35,0,0,0,10.13,1s-1.61,10.13,13.66,17.92a15.34,15.34,0,0,1-3.38-9s2.5,6.46,6.46,9.69l4,2.35s-1.76-9.55-.15-15.27A41.16,41.16,0,0,1,35.1,126.79s-4.11.59-6-7c0,0-2.79-6.61,2.79-8.81S36.27,109,36.27,109s-.88-28.49,27-49,56.54-11.67,69.53,0c0,0,39.65-9,36.79,47.8l.15,1.21s3.85,1.54,5,3,1.74,4.52.86,7.82a12.73,12.73,0,0,1-3.52,6.39,4.77,4.77,0,0,1-2.86.77l.11,6.06a17.36,17.36,0,0,0,15.31-7.16A70.91,70.91,0,0,1,187,101.11ZM23.2,83.4C25.26,66.73,29,56.32,39.94,50.28c0,0-10.87,10.63-13.8,33.82s-12.63,32.42-12.63,32.42S21.15,100.07,23.2,83.4Zm11.45.7s-4.82,32.56-21.15,38.72c0,0,13.92-15.08,16.32-40.24,1.92-20.18,31.76-80.8,101.75-30.84C131.58,51.75,59.33,7.78,34.66,84.1Z"/><path class="cls-1" d="M74.83,126.37l-5.51,5.26,2.24-7.26a7.56,7.56,0,0,0-2.24-.37,7.67,7.67,0,1,0,5.51,2.37Z"/><path class="cls-1" d="M139.14,126.37l-5.51,5.26,2.24-7.26a7.56,7.56,0,0,0-2.24-.37,7.67,7.67,0,1,0,5.51,2.37Z"/></g></g></svg>