<svg xmlns="http://www.w3.org/2000/svg" viewBox="0 0 144.32 50.54"><defs><style>.cls-1{fill:#2b2e31;}</style></defs><title>Element 10</title><g id="Ebene_2" data-name="Ebene 2"><g id="Layer_1" data-name="Layer 1"><path class="cls-1" d="M142.52,4.93c-15.08-3-38.35-6.26-48.69-4.38-10.77,2-13.46,3.08-14.66,5.33s-5.15,2.36-7,2.46c-1.86-.09-5.8-.2-7-2.46S59.08,2.4,48.23,1C35.81-.61,16.88,1.93,1.8,4.93A2.23,2.23,0,0,0,0,7.17,74.31,74.31,0,0,0,1.13,18.76a2.26,2.26,0,0,0,2.34,1.85l4-.23s1.35,10.25,3.35,18.71C13,48.3,19.14,50.69,33.64,50.53s21-.28,25.77-8.49S65.91,24.12,72.16,24.1c5.92-.08,8,9.73,12.75,17.95s11.28,8.33,25.77,8.49,20.63-2.23,22.81-11.44c2-8.46,3.35-18.71,3.35-18.71l4,.23a2.26,2.26,0,0,0,2.34-1.85,74.31,74.31,0,0,0,1.13-11.59A2.23,2.23,0,0,0,142.52,4.93ZM58.39,33.87C53.77,45.05,42.69,44.95,30.2,44.55s-13-5.47-14.87-12.26S10,11.61,19,8.88s22.82-2.16,31.23-1.2,13.38,4.5,13.2,8.34S63,22.69,58.39,33.87ZM129,32.29c-1.86,6.79-2.38,11.86-14.87,12.26s-23.57.51-28.18-10.68S81.06,19.74,80.88,16s4.79-7.37,13.2-8.34,22.2-1.54,31.23,1.2S130.84,25.5,129,32.29Z"/></g></g></svg>