<svg xmlns="http://www.w3.org/2000/svg" viewBox="0 0 144.98 53.85"><defs><style>.cls-1{fill:#2b2e31;}</style></defs><title>Element 4</title><g id="Ebene_2" data-name="Ebene 2"><g id="Layer_1" data-name="Layer 1"><path class="cls-1" d="M144.72,9.82a2.21,2.21,0,0,0-1.3-1.53c-6.31-2.76-16.06-9.05-37-8.22-16,.64-26.63,4.5-31.26,6.58a6.44,6.44,0,0,1-5.3,0C65.21,4.58,54.59.71,38.58.08c-21-.83-30.72,5.46-37,8.22A2.21,2.21,0,0,0,.25,9.82a11.87,11.87,0,0,0,2.44,9.92,2.16,2.16,0,0,0,1.72.81H6.72S7.89,41.29,18.12,48.3,45.06,55,52.76,51.08A21.2,21.2,0,0,0,63.87,37.34c1.9-6.58,1.67-16.08,8.62-16.08,6.2,0,6.72,9.5,8.62,16.08A21.2,21.2,0,0,0,92.22,51.08c7.7,3.93,24.41,4.24,34.64-2.78s11.4-27.75,11.4-27.75h2.31a2.16,2.16,0,0,0,1.72-.81A11.87,11.87,0,0,0,144.72,9.82ZM61.24,33.29C59.37,44.47,50.1,53.13,30,49.29c-17.76-3.4-18.42-21.45-18.7-24.77C10.89,19.59,8.49,8.14,25.39,6.1,42.71,4,56.63,7.64,60.69,11.58S62.06,28.36,61.24,33.29Zm72.44-8.77c-.27,3.32-.94,21.37-18.7,24.77-20.1,3.85-29.37-4.82-31.24-16-.82-4.93-3.51-17.76.55-21.7s18-7.56,35.29-5.48C136.48,8.14,134.08,19.59,133.68,24.52Z"/></g></g></svg>