<svg xmlns="http://www.w3.org/2000/svg" viewBox="0 0 132.02 51.05"><defs><style>.cls-1{fill:#2b2e31;}</style></defs><title>Element 9</title><g id="Ebene_2" data-name="Ebene 2"><g id="Layer_1" data-name="Layer 1"><path class="cls-1" d="M131.25,7c-3.22-1.3-16-6.16-30.1-6.94S79.36,5.6,76.63,8.19a2.66,2.66,0,0,1-2.19.7A84.61,84.61,0,0,0,66,8.1a84.61,84.61,0,0,0-8.43.8,2.66,2.66,0,0,1-2.19-.7C52.66,5.6,45-.72,30.88.07S4,5.71.78,7A1.24,1.24,0,0,0,0,8.16v4.37a1.26,1.26,0,0,0,1.07,1.23,5.18,5.18,0,0,1,3,1.45c-.28,4.89-.21,12.43,1.33,17.39s5.45,15.79,19.35,18S47.5,47.29,54.07,38.63c5.62-7.41,5.82-19.23,5.76-22.48a1.32,1.32,0,0,1,1-1.32,36.08,36.08,0,0,1,10.28,0,1.32,1.32,0,0,1,1,1.32c-.06,3.25.14,15.07,5.76,22.48,6.57,8.66,15.44,14.11,29.34,11.94s17.81-13,19.35-18,1.61-12.5,1.33-17.39a5.18,5.18,0,0,1,3-1.45A1.26,1.26,0,0,0,132,12.54V8.16A1.24,1.24,0,0,0,131.25,7Zm-76,24.11c-2.1,5.87-6.25,11.6-16,15.72-8.18,3.45-18.3,1.43-23.33-2.48s-8.33-8.82-9.5-18.09C5.24,16.83,9.36,8.94,11.95,7.4s7.26-4.54,17.6-5c6.85-.28,15.93.87,23.26,6.85S56.51,27.69,55.29,31.12Zm70.31-4.85c-1.17,9.27-4.47,14.18-9.5,18.09s-15.15,5.93-23.33,2.48C83,42.71,78.83,37,76.73,31.12c-1.23-3.43-4.85-15.85,2.48-21.83s16.41-7.12,23.26-6.85c10.34.42,15,3.42,17.6,5S126.78,16.83,125.6,26.26Z"/></g></g></svg>