<svg xmlns="http://www.w3.org/2000/svg" viewBox="0 0 141.17 53.37"><defs><style>.cls-1{fill:#2b2e31;}</style></defs><title>Element 3</title><g id="Ebene_2" data-name="Ebene 2"><g id="Layer_1" data-name="Layer 1"><path class="cls-1" d="M140,7.2c-4.31-2.49-17.86-9.08-37-6.69-15.72,2-25,5.32-29.34,7.3a7.48,7.48,0,0,1-6.2,0c-4.37-2-13.62-5.34-29.34-7.3C19-1.88,5.49,4.71,1.17,7.2A2.36,2.36,0,0,0,.05,9.75l1.5,7.05a2.38,2.38,0,0,0,2.77,1.84l.79-.15s2.24,12.46,4.7,19.43c4.13,11.7,15.9,16.67,28.76,15.21s17.24-6.28,21.48-15.2S65.18,23,70.58,22.87C76,23,76.87,29,81.11,37.93s8.62,13.74,21.48,15.2,24.63-3.51,28.76-15.21c2.46-7,4.7-19.43,4.7-19.43l.79.15a2.38,2.38,0,0,0,2.77-1.84l1.5-7.05A2.36,2.36,0,0,0,140,7.2ZM50.16,45.09C42.93,50.46,16.07,55.75,11.4,30.18c-.91-5-3.11-14.69-.58-17.54S23.53,4.86,38.21,6,60.35,14.73,60,20.86,57.39,39.72,50.16,45.09Zm79.61-14.91C125.09,55.75,98.24,50.46,91,45.09S81.47,27,81.14,20.86,88.27,7.05,103,6s24.88,3.84,27.4,6.69S130.68,25.19,129.77,30.18Z"/></g></g></svg>