<svg xmlns="http://www.w3.org/2000/svg" viewBox="0 0 210.43 175.45"><defs><style>.cls-1{fill:#2b2e31;}</style></defs><title>Element 24</title><g id="Ebene_2" data-name="Ebene 2"><g id="Layer_1" data-name="Layer 1"><path class="cls-1" d="M183.85,62.44c-8.66-10.57-22.76-35.83-32.31-46.11s-55.66-32.89-94.72,4c0,0-32.16-2.08-36.57,29.06S25,118.68,25,127.49,22.32,157.74.44,143.35c0,0-2.35,4,3.82,7.2,0,0,6.31,17.18,25.26,7.93,0,0-3.23,10.43-14.1,12.78,0,0,.88,4.26,10,2.35,0,0,5.31,4.26,9.77-.15a23.06,23.06,0,0,0,5.79-9s3.82.15,5.58-2.06,5-4.55,4-2.2-4.7,7.2-3.23,7,4.85-4,5.87-4,2.06,2.06.73,3.82.15,2.35,1.76,1.32,3.08-2.06,3.08-2.06-6-8.74-5-24.12c0,0-6.31-1.43-7.78-7.16s-4.55-21.44-4.55-21.44-5.56,1.47-6.23-.73-2.73-15.86-2-17,14.24-4.09,17.47-4.18c0,0-6.9-26.22,11.6-25.34,0,0-.55-8.61,10.72-4.7,0,0-1.32-6.75,18.5,9.55,10.43,8.58,18.59,15.77,29.58,20.64,2.6-.8,7.33-1.71,15.6-1.84-5.51-1.68-9.94-3.39-12.55-4.41C112.66,81.21,75,50.4,75,50.4l-.6-2a2.53,2.53,0,0,1,3-3.2c14.07,3.78,23,22.29,52.49,38.1,32.31,17.33,72-5.58,72-5.58C195,88.08,185,92.79,174.41,94.33c4,.8,7.32,1.54,9.42,2,19.71-4.78,25.14-16.07,26.6-26.86C210.43,69.49,192.52,73,183.85,62.44Z"/></g></g></svg>