<svg xmlns="http://www.w3.org/2000/svg" viewBox="0 0 204.7 169.18"><defs><style>.cls-1{fill:#2b2e31;}</style></defs><title>Element 25</title><g id="Ebene_2" data-name="Ebene 2"><g id="Layer_1" data-name="Layer 1"><path class="cls-1" d="M204.7,125.35c-5.87-5.07-5.29-13.14-5.29-13.14C207.05,99.13,201,78.87,201,78.87c.29-5.43-4.7-22.17-4.7-22.17-8.66-33.33-37.88-49.2-56.83-54.63C123.73-2.45,110.92,1.47,102.35,4,93.78,1.47,81-2.45,65.2,2.07,46.25,7.49,17,23.36,8.37,56.7c0,0-5,16.74-4.7,22.17,0,0-6,20.27,1.61,33.33,0,0,.59,8.08-5.29,13.14a7.64,7.64,0,0,0,5.58-3.89s-.15,4.41-1.76,6.76c0,0,4.11-1.76,4.85-5,0,0-.73,8.08-3.67,11.82,0,0,3.67.07,6.9-4.33a9.64,9.64,0,0,1-1,7.34s2.79.44,4.85-3c0,0-1.76,8.74-1.17,12.12a18.35,18.35,0,0,0,10.13,1s-1.61,10.13,13.66,17.92a15.34,15.34,0,0,1-3.38-9s2.5,6.46,6.46,9.69l4,2.35s-1.76-9.55-.15-15.27a41,41,0,0,1-9.87-22.55l.06-3.36h-.31c0-.08,0-.15,0-.22s-4.11.59-6-7c0,0-.07-.17-.16-.43a9.78,9.78,0,0,1,.62-6.76,5.57,5.57,0,0,1,2.32-1.62c5.58-2.2,4.41-1.91,4.41-1.91s-3-31.75,27-49c16.62-9.53,26.23-11.3,39.06-12.15,12.83.85,22.06,1.29,39.06,12.15,29.18,18.62,27,49,27,49s-1.17-.29,4.41,1.91a5.57,5.57,0,0,1,2.32,1.62,9.78,9.78,0,0,1,.62,6.76c-.09.27-.16.43-.16.43-1.91,7.64-6,7-6,7s0,.15,0,.22h-.31l.06,3.36a41,41,0,0,1-9.87,22.55c1.61,5.73-.15,15.27-.15,15.27l4-2.35c4-3.23,6.46-9.69,6.46-9.69a15.34,15.34,0,0,1-3.38,9c15.27-7.78,13.66-17.92,13.66-17.92a18.35,18.35,0,0,0,10.13-1C190.75,143.78,189,135,189,135c2.06,3.45,4.85,3,4.85,3a9.64,9.64,0,0,1-1-7.34c3.23,4.41,6.9,4.33,6.9,4.33-2.94-3.74-3.67-11.82-3.67-11.82.73,3.23,4.85,5,4.85,5-1.62-2.35-1.76-6.76-1.76-6.76A7.64,7.64,0,0,0,204.7,125.35Z"/></g></g></svg>