<svg xmlns="http://www.w3.org/2000/svg" viewBox="0 0 155.84 241.15"><defs><style>.cls-1{fill:#2b2e31;}</style></defs><title>Element 41</title><g id="Ebene_2" data-name="Ebene 2"><g id="Layer_1" data-name="Layer 1"><path class="cls-1" d="M150.17,124.28c-4.31-2.49-17.86-9.08-37-6.69-15.72,2-25,5.32-29.34,7.3a7.48,7.48,0,0,1-6.2,0c-4.37-2-13.62-5.34-29.34-7.3-19.11-2.39-32.65,4.2-37,6.69a2.36,2.36,0,0,0-1.12,2.54l1.5,7.05a2.38,2.38,0,0,0,2.77,1.84l.79-.15S17.53,148,20,155c4.13,11.7,15.9,16.67,28.76,15.21S66,163.92,70.24,155s5.11-14.91,10.52-15.05c5.41.15,6.28,6.14,10.52,15.05s8.62,13.74,21.48,15.2,24.63-3.51,28.76-15.21c2.46-7,4.7-19.43,4.7-19.43l.79.15a2.38,2.38,0,0,0,2.77-1.84l1.5-7.05A2.36,2.36,0,0,0,150.17,124.28ZM60.33,162.16c-7.23,5.37-34.09,10.67-38.76-14.91-.91-5-3.11-14.69-.58-17.54s12.71-7.78,27.4-6.69,22.14,8.77,21.81,14.91S67.57,156.79,60.33,162.16Zm79.61-14.91c-4.68,25.57-31.53,20.28-38.76,14.91s-9.54-18.09-9.86-24.22,7.12-13.81,21.81-14.91,24.88,3.84,27.4,6.69S140.86,142.26,139.95,147.26Z"/><path class="cls-1" d="M67.86,167.13c-.69-.55-2.09.7-2.2,3.32s2.42,4.39,4.08,4.61,1.54-.77.55-.88-2.64-3-2.64-4.3S68.41,167.57,67.86,167.13Z"/><path class="cls-1" d="M71.88,171.86c-.51-.06-.83,1.65,1,2.75a20.27,20.27,0,0,0,8.26,2c2.42,0,5.62-2,4.74-2.37s-2.09,1-5.29.86-6.72-.91-7.27-1.79S72.83,172,71.88,171.86Z"/><path class="cls-1" d="M90.32,164.81c-.84-.35-2.75,1.76-.77,2.75s2.42,1.58,1.87,2.88,0,3,.22,2.74,3.09-1.32,2.42-3.19S92.42,165.7,90.32,164.81Z"/><path class="cls-1" d="M76.23,147.74c-1.29,1.42-4,12.78-5,15.31s-.77,3.08,0,3.19,1.21-2.31,2.87-8S77.33,146.53,76.23,147.74Z"/><path class="cls-1" d="M155.2,133.21c-1-1.1-3.52-2.75-3.85-1.65a9.73,9.73,0,0,0-.22,1.33,17,17,0,0,1,1.87.33c1.21.33,1,4,1,11.89s-1.43,19.82-1.87,23.89-5.4,4.75-5.91,4.75-.59-11-.7-16,.7-17.55.7-17.55h0c-.78,4-2.12,10.58-3,13.48a44.43,44.43,0,0,1-2.64,6.83s-4.41,35.9-17.62,37.34-10.57-14.1-12.34-14.65-16.74-1.66-20.16-1.55a59.7,59.7,0,0,0-9.67,1.77s-9.49-2.42-11-2.42-17,1.68-18.66,2.35-4.25,16.82-10.19,16.71S27,193.34,24.24,180.78a169.89,169.89,0,0,1-3.41-21.37,77.09,77.09,0,0,1-6.17-19.05l-3.52-2.86c-1.76-1.32-4.52-3.52-7.82-2.64s-4,4.2-2.75,12.73,3,18.77,3.41,22.08a7.84,7.84,0,0,0,4,6.39,26.28,26.28,0,0,0,5.18,2.64s3,22.58,4.85,25.33,13.22,15.31,25.66,23.57,26,13.88,40.09,13.55,21.92-4.52,25.11-6.39S131.3,217,134.93,214s6.72-7.82,8-16,2.64-20.71,2.64-20.71,7.82-3.62,8.48-6.33,1.65-21.1,1.65-26.6S156.19,134.31,155.2,133.21ZM12.35,177.37s-2.2-1.43-4.3-3.14a8.61,8.61,0,0,1-3-5.78c-.33-2-1.87-20.71-2.31-26.21s.77-5.4,2.75-5.4,6.83,3.74,6.83,3.74c0,2.12.33,12.34.55,21.26A122.48,122.48,0,0,1,12.35,177.37Zm88.36,38c-4.52,4.08-12.11,3.3-12.23,1.65s3.08-12.34.77-13.55-8.5-2-8.5-2-6.18.77-8.5,2,.88,11.89.77,13.55-7.71,2.42-12.23-1.65-.55-17.29,0-19.16,8.7-4.63,10.68-4.85,6.72.33,9.27.55c2.55-.22,7.29-.77,9.27-.55s10.13,3,10.68,4.85S105.22,211.29,100.71,215.37Z"/><path class="cls-1" d="M87.79,193.23c1.93-.71-7.84.77-11.19.77s-4.34-.88-4.45,0S81.18,195.65,87.79,193.23Z"/><path class="cls-1" d="M21.47,118l-7.7,2.57S8.08,95.71,6.4,88s0-16.15,2.09-19.17,24-28.68,36.08-40.61S64.65,10.11,65.85,10s3.32,4.68,3.32,4.68S70.83,9.36,70.23,6a54.58,54.58,0,0,1-.75-6A20.8,20.8,0,0,1,84.27,10.26s.6-5.13-1.21-9.06c0,0,7.09,1.21,11.77,11,0,0,1.51-4.08,0-6.19,0,0,4.83-.15,11.47,8.45a3,3,0,0,1,4.23.45c2,2.26,21.28,25.21,32.91,47.25,0,0,6.79,11.32,7.85,13.28s-3.17,36.08-4.38,45.14c0,0-5-2.11-7.7-2.87,0,0,4.08-17.81-2.11-35,0,0-.75-5.74-12.08-2s-28.45,7.7-44.12,6.94-41.17-7.09-46-6.94-15.25,4.53-15.85,6.49S18.45,108.69,21.47,118Z"/><path class="cls-1" d="M51.12,138.85l-5.51,5.26,2.24-7.26a7.55,7.55,0,0,0-2.24-.37,7.67,7.67,0,1,0,5.51,2.37Z"/><path class="cls-1" d="M119,138.85l-5.51,5.26,2.24-7.26a7.55,7.55,0,0,0-2.24-.37,7.67,7.67,0,1,0,5.51,2.37Z"/></g></g></svg>