<svg xmlns="http://www.w3.org/2000/svg" viewBox="0 0 162.38 204.58"><defs><style>.cls-1{fill:#2b2e31;}</style></defs><title>Element 29</title><g id="Ebene_2" data-name="Ebene 2"><g id="Layer_1" data-name="Layer 1"><path class="cls-1" d="M147.43,91.3c-3.22-1.3-16-6.16-30.1-6.94s-21.78,5.53-24.52,8.12a2.66,2.66,0,0,1-2.19.7c-2-.27-5.79-.75-8.43-.8s-6.46.53-8.43.8a2.66,2.66,0,0,1-2.19-.7c-2.73-2.59-10.39-8.91-24.52-8.12S20.18,90,17,91.3a1.24,1.24,0,0,0-.78,1.16v4.37a1.26,1.26,0,0,0,1.07,1.23,5.18,5.18,0,0,1,3,1.45c-.28,4.89-.21,12.43,1.33,17.39s5.45,15.79,19.35,18,22.77-3.28,29.34-11.94c5.62-7.41,5.82-19.23,5.76-22.48a1.32,1.32,0,0,1,1-1.32,36.09,36.09,0,0,1,10.28,0,1.32,1.32,0,0,1,1,1.32c-.06,3.25.14,15.07,5.76,22.48,6.57,8.66,15.44,14.11,29.34,11.94s17.81-13,19.35-18,1.61-12.5,1.33-17.39a5.18,5.18,0,0,1,3-1.45,1.26,1.26,0,0,0,1.07-1.23V92.45A1.24,1.24,0,0,0,147.43,91.3Zm-76,24.11c-2.1,5.87-6.25,11.6-16,15.72-8.18,3.45-18.3,1.43-23.33-2.48s-8.33-8.82-9.5-18.09c-1.19-9.43,2.93-17.32,5.52-18.86s7.26-4.54,17.6-5c6.85-.28,15.93.87,23.26,6.85S72.7,112,71.47,115.41Zm70.31-4.85c-1.17,9.27-4.47,14.18-9.5,18.09s-15.15,5.93-23.33,2.48c-9.78-4.12-13.94-9.85-16-15.72C91.69,112,88.07,99.56,95.4,93.58s16.41-7.12,23.26-6.85c10.34.42,15,3.42,17.6,5S143,101.12,141.78,110.55Z"/><path class="cls-1" d="M14.12,94.59s-.29-3.38,1.47-4.26C16.84,89.71,23,88,26.43,87A2.63,2.63,0,0,0,28.32,84c-1.59-8-6.48-33.16-5.24-34.89,1.43-2,27.24-17.52,41.33-19.54a2.57,2.57,0,0,1,2,.55c2.82,2.24,11.88,9.29,16.47,11.11A2.64,2.64,0,0,0,85.13,41C88.29,39.28,98.59,33.5,106,29.1a2.64,2.64,0,0,1,2.52-.1c5.24,2.58,24.87,12.35,29.88,16.23a2.59,2.59,0,0,1,1,2c.06,4.5.11,21.59-2.39,36.48a2.63,2.63,0,0,0,1.84,3c2.61.77,6.82,2.05,8.9,2.88a2.63,2.63,0,0,1,1.61,2,10.18,10.18,0,0,1,.15,1.8l1.76,1.17s7.21-50.34,11-63.65a2.64,2.64,0,0,0-1.86-3.3c-9.37-2.47-39.77-10.73-46.58-15.43C105.76,6.63,91.07,1.49,87,.17l-.12,0c-1.28-.41-3,.14-3.19,1.47,0,.09-.08.15-.22.19-1.17.29-5.43-2.2-15.27.73s-40.67,18.65-52,23.35S-.42,31.3,0,33.36,10.75,91.8,12.65,94.59C12.65,94.59,12.65,95,14.12,94.59Z"/><path class="cls-1" d="M14.42,96.17s.44,1.21,0,1.54-4.85,2.75-5.4,4.74.66,12.78,1.87,18.06a13.14,13.14,0,0,0,7.16,8.92c2.2,1.1,3,1,1.54,1.65s-7.49.22-10.24-7.38-3.41-21.26-2-23.57S11.55,97.16,14.42,96.17Z"/><path class="cls-1" d="M150,97.16l-.66,1.76s2.66-.47,2.75,5.4a88,88,0,0,1-3.88,26.21c-1.56,4.94-1.85,7.6-1.29,7.6s5.95-13.88,6.5-24.4S155.61,97.27,150,97.16Z"/><path class="cls-1" d="M71,128.11c-.53-.6-1.54,2.08-1.54,3.19S71,133.84,74,133.51c0,0-2-1.22-2.26-2.21S71.8,129,71,128.11Z"/><path class="cls-1" d="M77,131.3c0-1-1.54,1.53-.66,2.26s5.73,2.59,8.48.83c0,0,.86-1.11-2.6-.83S77,133.17,77,131.3Z"/><path class="cls-1" d="M92.06,131.07c-1.4.74-3.3,1.95-2.53,2s5.07-1.14,4.63-1.8S93.12,130.51,92.06,131.07Z"/><path class="cls-1" d="M76,163.91c1-.88,9-2.09,15.73,0,0,0-12.15-.33-14.35,1.21S74.67,165.12,76,163.91Z"/><path class="cls-1" d="M83.53,187.14c-.79-.51-1.73,1.1-1.34,3.74s.29,4.85,1.34,4.3S85.57,188.47,83.53,187.14Z"/><path class="cls-1" d="M25.43,128s-2.75,30.48-2.86,35.77,30.29,31.94,33.81,35.9,8.79,4.63,27,4.85,21.43-.44,26.06-4.85,21.15-21,24.67-24.34,7-4.21,7-9.6-.66-26.53-2.2-38.53c0,0-.77,1.87-4.3,4.68,0,0,3.52,13.93,4.07,36.62,0,0-21.92,20.6-27.42,25.33s-6.94,7.38-13.33,7.71-24.45-.33-29.52-.22-6.72-.33-8.92-1.76-25.11-23.68-29.52-30.07-5.84-4.41-4.85-14,2.31-21.41,3.08-24.74C28.29,130.79,28.4,131.35,25.43,128Z"/><path class="cls-1" d="M59.14,104l-5.51,5.26L55.86,102a7.55,7.55,0,0,0-2.24-.37A7.67,7.67,0,1,0,59.14,104Z"/><path class="cls-1" d="M118.17,104l-5.51,5.26L114.9,102a7.55,7.55,0,0,0-2.24-.37,7.67,7.67,0,1,0,5.51,2.37Z"/><path class="cls-1" d="M123.55,168.61c2.36,2.74,1.83,6.39-2.74,5.48s-2.74-6.85-5-24.19c-2-15-26.11-6.45-32.61-3.86-6.5-2.59-30.64-11.13-32.61,3.86-2.28,17.34-.46,23.28-5,24.19s-5.1-2.74-2.74-5.48c0,0-5.25,3.88-.46,6.85,8.95,5.54,37.93,5.07,40.83-13.19,2.9,18.26,31.88,18.73,40.83,13.19C128.8,172.49,123.55,168.61,123.55,168.61Z"/></g></g></svg>