<svg xmlns="http://www.w3.org/2000/svg" viewBox="0 0 173.23 207.21"><defs><style>.cls-1{fill:#2b2e31;}</style></defs><title>Element 42</title><g id="Ebene_2" data-name="Ebene 2"><g id="Layer_1" data-name="Layer 1"><path class="cls-1" d="M158.22,90.34c-4.31-2.49-17.86-9.08-37-6.69-15.72,2-25,5.32-29.34,7.3a7.47,7.47,0,0,1-6.2,0c-4.37-2-13.62-5.34-29.34-7.3-19.11-2.39-32.65,4.2-37,6.69a2.36,2.36,0,0,0-1.12,2.54l1.5,7.05a2.38,2.38,0,0,0,2.77,1.84l.79-.15s2.24,12.46,4.7,19.43c4.13,11.7,15.9,16.67,28.76,15.21S74,130,78.28,121.06,83.4,106.15,88.81,106c5.41.15,6.28,6.14,10.52,15.05s8.62,13.74,21.48,15.2,24.63-3.51,28.76-15.21c2.46-7,4.7-19.43,4.7-19.43l.79.15a2.38,2.38,0,0,0,2.77-1.84l1.5-7.05A2.36,2.36,0,0,0,158.22,90.34ZM68.38,128.22c-7.23,5.37-34.09,10.67-38.76-14.91-.91-5-3.11-14.69-.58-17.54S41.75,88,56.44,89.09,78.58,97.86,78.25,104,75.62,122.85,68.38,128.22ZM148,113.32c-4.68,25.57-31.53,20.28-38.76,14.91S99.69,110.14,99.37,104s7.12-13.81,21.81-14.91,24.88,3.84,27.4,6.69S148.91,108.32,148,113.32Z"/><path class="cls-1" d="M75.91,133.19c-.69-.55-2.09.7-2.2,3.32s2.42,4.39,4.08,4.61,1.54-.77.55-.88-2.64-3-2.64-4.3S76.46,133.63,75.91,133.19Z"/><path class="cls-1" d="M79.93,137.92c-.51-.06-.83,1.65,1,2.75a20.27,20.27,0,0,0,8.26,2c2.42,0,5.62-2,4.74-2.37s-2.09,1-5.29.86-6.72-.91-7.27-1.79S80.88,138,79.93,137.92Z"/><path class="cls-1" d="M98.37,130.87c-.84-.35-2.75,1.76-.77,2.75s2.42,1.58,1.87,2.88,0,3,.22,2.74,3.09-1.32,2.42-3.19S100.47,131.76,98.37,130.87Z"/><path class="cls-1" d="M84.28,113.8c-1.29,1.42-4,12.78-5,15.31s-.77,3.08,0,3.19,1.21-2.31,2.87-8S85.38,112.59,84.28,113.8Z"/><path class="cls-1" d="M163.24,99.27c-1-1.1-3.52-2.75-3.85-1.65a9.74,9.74,0,0,0-.22,1.33,17,17,0,0,1,1.87.33c1.21.33,1,4,1,11.89S160.6,131,160.16,135s-5.4,4.75-5.91,4.75-.59-11-.7-16,.7-17.55.7-17.55h0c-.78,4-2.12,10.58-3,13.48a44.42,44.42,0,0,1-2.64,6.83s-4.41,35.9-17.62,37.34-10.57-14.1-12.34-14.65-16.74-1.66-20.16-1.55a59.69,59.69,0,0,0-9.67,1.77s-9.49-2.42-11-2.42-17,1.68-18.66,2.35-4.25,16.82-10.19,16.71S35,159.4,32.29,146.84a169.89,169.89,0,0,1-3.41-21.37,77.09,77.09,0,0,1-6.17-19.05l-3.52-2.86c-1.76-1.32-4.52-3.52-7.82-2.64s-4,4.2-2.75,12.73,3,18.77,3.41,22.08a7.84,7.84,0,0,0,4,6.39,26.28,26.28,0,0,0,5.18,2.64s3,22.58,4.85,25.33,13.22,15.31,25.66,23.57,26,13.88,40.09,13.55,21.92-4.52,25.11-6.39,22.47-17.73,26.1-20.71,6.72-7.82,8-16,2.64-20.71,2.64-20.71,7.82-3.62,8.48-6.33,1.65-21.1,1.65-26.6S164.23,100.37,163.24,99.27ZM20.4,143.43s-2.2-1.43-4.3-3.14a8.61,8.61,0,0,1-3-5.78c-.33-2-1.87-20.71-2.31-26.21s.77-5.4,2.75-5.4,6.83,3.74,6.83,3.74c0,2.12.33,12.34.55,21.26A122.49,122.49,0,0,1,20.4,143.43Zm88.36,38c-4.52,4.07-12.11,3.3-12.23,1.65s3.08-12.34.77-13.55-8.5-2-8.5-2-6.18.77-8.5,2,.88,11.89.77,13.55-7.71,2.42-12.23-1.65-.55-17.29,0-19.16,8.7-4.63,10.68-4.85,6.72.33,9.27.55c2.55-.22,7.29-.77,9.27-.55s10.13,3,10.68,4.85S113.27,177.35,108.76,181.43Z"/><path class="cls-1" d="M95.84,159.29c1.93-.71-7.84.77-11.19.77s-4.34-.88-4.45,0S89.23,161.71,95.84,159.29Z"/><path class="cls-1" d="M172.61,73.31c-2.64-7.93-19.53-12.63-19.53-12.63-3.38-10.43-6-24.82-15.71-44.2S117.54.18,114,.18s-24.08,7-30,6.9S66.43,1.21,56.3.62,34.86,7.67,26.93,21,15.77,69.35,15.77,69.35L12.25,71C6.08,73.31-3.61,82,1.38,86.9S16.8,95.19,16.8,95.19s-.29-4.11,0-4.85S21.35,88,21.35,88,20,81.83,37.95,77.57s49-7.34,74-6.31,34.95,13.22,34.95,13.22a87.85,87.85,0,0,1,12.48,5.27c2.06,1.16,1.91,4.13,1.91,4.13C169.08,90.2,175.25,81.24,172.61,73.31ZM85.38,55.25A203.85,203.85,0,0,0,18.22,68.9S37.65,54.51,84.65,53.49s65.49,8.59,65.49,8.59S122.38,54.37,85.38,55.25Z"/><path class="cls-1" d="M61.81,104.91l-5.51,5.26,2.24-7.26a7.56,7.56,0,0,0-2.24-.37,7.67,7.67,0,1,0,5.51,2.37Z"/><path class="cls-1" d="M126.13,104.91l-5.51,5.26,2.24-7.26a7.56,7.56,0,0,0-2.24-.37,7.67,7.67,0,1,0,5.51,2.37Z"/></g></g></svg>