<svg xmlns="http://www.w3.org/2000/svg" viewBox="0 0 178.5 214.58"><defs><style>.cls-1{fill:#2b2e31;}</style></defs><title>Element 38</title><g id="Ebene_2" data-name="Ebene 2"><g id="Layer_1" data-name="Layer 1"><path class="cls-1" d="M161.49,106.36a2.21,2.21,0,0,0-1.3-1.53c-6.31-2.76-16.06-9.05-37-8.22-16,.64-26.63,4.5-31.26,6.58a6.44,6.44,0,0,1-5.3,0c-4.63-2.08-15.25-5.94-31.26-6.58-21-.83-30.72,5.46-37,8.22a2.21,2.21,0,0,0-1.3,1.53,11.87,11.87,0,0,0,2.44,9.92,2.16,2.16,0,0,0,1.72.81h2.31s1.17,20.73,11.4,27.75,26.94,6.71,34.64,2.78a21.2,21.2,0,0,0,11.11-13.74c1.9-6.58,1.67-16.08,8.62-16.08,6.2,0,6.72,9.5,8.62,16.08A21.2,21.2,0,0,0,109,147.61c7.7,3.93,24.41,4.24,34.64-2.78S155,117.09,155,117.09h2.31a2.16,2.16,0,0,0,1.72-.81A11.87,11.87,0,0,0,161.49,106.36ZM78,129.82c-1.86,11.18-11.14,19.85-31.24,16-17.76-3.4-18.42-21.45-18.7-24.77-.41-4.93-2.81-16.38,14.09-18.41,17.32-2.08,31.24,1.53,35.29,5.48S78.83,124.89,78,129.82Zm72.44-8.77c-.27,3.32-.94,21.37-18.7,24.77-20.1,3.85-29.37-4.82-31.24-16-.82-4.93-3.51-17.76.55-21.7s18-7.56,35.29-5.48C153.25,104.67,150.85,116.12,150.44,121.05Z"/><path class="cls-1" d="M36.43,96.54a109.53,109.53,0,0,1,26.58,0c13.07,1.87,14.83,2.6,14.83,2.6s-.73-6-1.76-6.9a8.38,8.38,0,0,0-6.31-1.62c-2.79.44-17,2.35-22.61,2.64a44.5,44.5,0,0,0-10.72,1.57C35.11,95.32,36.43,96.54,36.43,96.54Z"/><path class="cls-1" d="M104.56,93.85s12.63,1.76,14.1,1.76,16.15-.29,19.24,0l.73-.88s-7.93-2.39-13.07-4.21-14.54-4-17-4.16-3.67,1-4,2.35S103.68,93,104.56,93.85Z"/><path class="cls-1" d="M17.48,115.88s-.57-1.76-1.39-1.76-5.22,2.06-4.19,6,5.14,11.6,6.61,17.33,4.26,10.43,7.49,11.31,4-.44,4.55-2.06c0,0-2.2,1.91-4.41.73s-4.41-5-6.61-10.87-6.31-17.33-6-18.36,2.22-2.5,2.58-2.35A4.22,4.22,0,0,0,17.48,115.88Z"/><path class="cls-1" d="M159.19,117.49l1.47-1.32s.85,3.23,1.08,4.55a33.68,33.68,0,0,1-2.55,14.83c-2.79,6.61-6.46,14.53-7.93,14.83s-4.26-.76-5.29-1.33,0-2.19,1.17-1.31,2.06,2.2,3.67.29a54.35,54.35,0,0,0,7.07-13.66c1.6-5,2.48-7.74,2.33-10.92A26.34,26.34,0,0,0,159.19,117.49Z"/><path class="cls-1" d="M33.2,146.86c.31-1.35,1.17,2.49.88,3.52s-2.35,18.21-.88,19.39,8.52,12.34,21.73,25.7,13.36,15.57,16,16.15,17-.15,21.88,0,16.89,1.17,19.38-.88,17.92-20.71,23.2-26.87S146,169,145.55,166.24s-3.84-16.18-3.25-17.19a2.42,2.42,0,0,1,1.62-1.16S147,163.75,147,167.57s-11,19.82-21.29,31.72-9.4,14.39-19.38,14.54-35.68,1.62-37.59,0S57,199.73,50.82,193.56,32.32,174,31.14,169.33,32.32,150.68,33.2,146.86Z"/><path class="cls-1" d="M83,155.52c-1.12.56-2.06.88-.59,1.76s5.73,3.08,9.55,2.79a11.21,11.21,0,0,0,8.22-4.55s-6.35,3.4-9.27,2.29S84.12,155,83,155.52Z"/><path class="cls-1" d="M97.4,175.94c1,.72,2.5,2.35,0,2.35s-4.33-2.2-10.83-1.17-10.17,2.06-14.87,0-5.73-4-5.73-4a17.51,17.51,0,0,0,9.69,3.52c5.87.29,10.72-1.47,13.22-1.62S96.23,175.06,97.4,175.94Z"/><path class="cls-1" d="M63.19,167.42A10.18,10.18,0,0,0,59.37,169c-1.91,1.32-1.91,2.35-1.91,2.35a2.94,2.94,0,0,0,2.86-.59C61.57,169.62,61.57,167.71,63.19,167.42Z"/><path class="cls-1" d="M95.83,187.89c-1.62-1.58-10.53.07-13.59,1.5,0,0,8.93,0,11.14.94S97.06,189.1,95.83,187.89Z"/><path class="cls-1" d="M14.88,106.74s-.29-3.72,1.66-4.67c1.38-.67,8.14-2.52,12-3.53A2.9,2.9,0,0,0,30.6,95.2c-1.66-8.79-6.77-40-5.4-41.93,1.59-2.19,30.12-19,45.63-21a2.83,2.83,0,0,1,2.15.63c3.08,2.49,13,10.34,18,12.38a2.9,2.9,0,0,0,2.5-.13C97,43.2,108.36,37,116.54,32.19a2.9,2.9,0,0,1,2.77-.08C125.05,35,146.52,45.95,152,50.26a2.85,2.85,0,0,1,1.08,2.25c0,4.95-.11,27.26-3,43.6a2.89,2.89,0,0,0,2,3.3c2.86.88,7.47,2.33,9.75,3.26a2.89,2.89,0,0,1,1.75,2.22,11.19,11.19,0,0,1,.15,2l1.92,1.31s8.45-58.78,12.75-73.37a2.9,2.9,0,0,0-2-3.64c-10.27-2.82-43.6-12.21-51-17.45C116.51,7.5,100.43,1.69,95.92.2l-.13,0c-1.4-.46-3.32.12-3.52,1.58,0,.1-.09.17-.24.2-1.29.31-5.95-2.48-16.79.65S30.34,22.66,17.86,27.7-.44,33.5,0,35.76s11.17,67.87,13.24,71C13.26,106.72,13.26,107.21,14.88,106.74Z"/><path class="cls-1" d="M60.79,118.54l-5.51,5.26,2.24-7.26a7.56,7.56,0,0,0-2.24-.37,7.67,7.67,0,1,0,5.51,2.37Z"/><path class="cls-1" d="M126.87,118.54l-5.51,5.26,2.24-7.26a7.56,7.56,0,0,0-2.24-.37,7.67,7.67,0,1,0,5.51,2.37Z"/></g></g></svg>