<svg xmlns="http://www.w3.org/2000/svg" viewBox="0 0 150.09 231.6"><defs><style>.cls-1{fill:#2b2e31;}</style></defs><title>Element 30</title><g id="Ebene_2" data-name="Ebene 2"><g id="Layer_1" data-name="Layer 1"><path class="cls-1" d="M149.74,123.38a2.21,2.21,0,0,0-1.3-1.53c-6.31-2.76-16.06-9.05-37-8.22-16,.64-26.63,4.5-31.26,6.58a6.44,6.44,0,0,1-5.3,0c-4.63-2.08-15.25-5.94-31.26-6.58-21-.83-30.72,5.46-37,8.22a2.21,2.21,0,0,0-1.3,1.53,11.87,11.87,0,0,0,2.44,9.92,2.16,2.16,0,0,0,1.72.81h2.31s1.17,20.73,11.4,27.75,26.94,6.71,34.64,2.78A21.2,21.2,0,0,0,68.88,150.9c1.9-6.58,1.67-16.08,8.62-16.08,6.2,0,6.72,9.5,8.62,16.08a21.2,21.2,0,0,0,11.11,13.74c7.7,3.93,24.41,4.24,34.64-2.78s11.4-27.75,11.4-27.75h2.31a2.16,2.16,0,0,0,1.72-.81A11.87,11.87,0,0,0,149.74,123.38ZM66.25,146.84C64.39,158,55.11,166.69,35,162.85c-17.76-3.4-18.42-21.45-18.7-24.77-.41-4.93-2.81-16.38,14.09-18.41,17.32-2.08,31.24,1.53,35.29,5.48S67.08,141.91,66.25,146.84Zm72.44-8.77c-.27,3.32-.94,21.37-18.7,24.77-20.1,3.85-29.37-4.82-31.24-16-.82-4.93-3.51-17.76.55-21.7s18-7.56,35.29-5.48C141.5,121.69,139.1,133.14,138.69,138.07Z"/><path class="cls-1" d="M24.68,113.56a109.53,109.53,0,0,1,26.58,0c13.07,1.87,14.83,2.6,14.83,2.6s-.73-6-1.76-6.9A8.38,8.38,0,0,0,58,107.64c-2.79.44-17,2.35-22.61,2.64a44.49,44.49,0,0,0-10.72,1.57C23.36,112.34,24.68,113.56,24.68,113.56Z"/><path class="cls-1" d="M92.82,110.87s12.63,1.76,14.1,1.76,16.15-.29,19.24,0l.73-.88s-7.93-2.39-13.07-4.21-14.54-4-17-4.16-3.67,1-4,2.35S91.93,110,92.82,110.87Z"/><path class="cls-1" d="M19.69,114.84l-7.49,2.5S6.65,93.1,5,85.61,5,69.9,7.06,67s23.35-27.9,35.1-39.5S61.68,9.84,62.86,9.69s3.23,4.55,3.23,4.55,1.62-5.14,1-8.37A53.12,53.12,0,0,1,66.38,0,20.24,20.24,0,0,1,80.77,10s.59-5-1.17-8.81c0,0,6.9,1.17,11.45,10.72,0,0,1.47-4,0-6,0,0,4.7-.15,11.16,8.22a2.92,2.92,0,0,1,4.11.44c1.91,2.2,20.71,24.52,32,46,0,0,6.61,11,7.64,12.92s-3.08,35.1-4.26,43.91c0,0-4.85-2.06-7.49-2.79,0,0,4-17.33-2.06-34.07,0,0-.73-5.58-11.75-1.91s-27.68,7.49-42.92,6.76-40.05-6.9-44.75-6.76S17.92,83,17.34,84.88,16.75,105.73,19.69,114.84Z"/><path class="cls-1" d="M5.73,132.9s-.57-1.76-1.39-1.76-5.22,2.06-4.19,6,5.14,11.6,6.61,17.33,4.26,10.43,7.49,11.31,4-.44,4.55-2.06c0,0-2.2,1.91-4.41.73s-4.41-5-6.61-10.87-6.31-17.33-6-18.36,2.22-2.5,2.58-2.35A4.23,4.23,0,0,0,5.73,132.9Z"/><path class="cls-1" d="M147.44,134.51l1.47-1.32s.85,3.23,1.08,4.55a33.68,33.68,0,0,1-2.55,14.83c-2.79,6.61-6.46,14.53-7.93,14.83s-4.26-.76-5.29-1.33,0-2.19,1.17-1.31,2.06,2.2,3.67.29a54.35,54.35,0,0,0,7.07-13.66c1.6-5,2.48-7.74,2.33-10.92A26.33,26.33,0,0,0,147.44,134.51Z"/><path class="cls-1" d="M21.45,163.88c.31-1.35,1.17,2.49.88,3.52s-2.35,18.21-.88,19.39,13.8,12.34,27,25.7,15.13,15.57,17.77,16.15,10-.15,14.83,0,11.6,1.17,14.1-.88,19.68-20.71,25-26.87,14.13-14.83,13.68-17.62-3.84-16.18-3.25-17.19a2.42,2.42,0,0,1,1.62-1.16s3.08,15.86,3.08,19.68-16.3,19.82-26.58,31.72-9.4,14.39-19.38,14.54-23.35,1.62-25.26,0-13.51-14.1-19.68-20.27-23.79-19.53-25-24.23S20.57,167.7,21.45,163.88Z"/><path class="cls-1" d="M71.23,172.55c-1.12.56-2.06.88-.59,1.76s5.73,3.08,9.55,2.79a11.21,11.21,0,0,0,8.22-4.55s-6.35,3.4-9.27,2.29S72.38,172,71.23,172.55Z"/><path class="cls-1" d="M66.68,193c-1,.72-2.5,2.35,0,2.35s4.33-2.2,10.83-1.17,10.17,2.06,14.87,0,5.73-4,5.73-4a17.51,17.51,0,0,1-9.69,3.52c-5.87.29-10.72-1.47-13.22-1.62S67.85,192.09,66.68,193Z"/><path class="cls-1" d="M100.89,184.44a10.18,10.18,0,0,1,3.82,1.62c1.91,1.32,1.91,2.35,1.91,2.35a2.94,2.94,0,0,1-2.86-.59C102.51,186.64,102.51,184.73,100.89,184.44Z"/><path class="cls-1" d="M69.89,209.41c.8-2.11,9.57-4.41,12.94-4.41,0,0-8.08,3.82-9.69,5.58S69.28,211,69.89,209.41Z"/><path class="cls-1" d="M50,135.56l-5.51,5.26,2.24-7.26a7.55,7.55,0,0,0-2.24-.37A7.67,7.67,0,1,0,50,135.56Z"/><path class="cls-1" d="M114.34,135.56l-5.51,5.26,2.24-7.26a7.55,7.55,0,0,0-2.24-.37,7.67,7.67,0,1,0,5.51,2.37Z"/></g></g></svg>