<svg xmlns="http://www.w3.org/2000/svg" viewBox="0 0 153.03 222.77"><defs><style>.cls-1{fill:#2b2e31;}</style></defs><title>Element 31</title><g id="Ebene_2" data-name="Ebene 2"><g id="Layer_1" data-name="Layer 1"><path class="cls-1" d="M25.6,99.06a109.52,109.52,0,0,1,26.58,0c13.07,1.87,14.83,2.6,14.83,2.6s-.73-6-1.76-6.9a8.38,8.38,0,0,0-6.31-1.62c-2.79.44-17,2.35-22.61,2.64A44.5,44.5,0,0,0,25.6,97.36C24.27,97.84,25.6,99.06,25.6,99.06Z"/><path class="cls-1" d="M93.73,96.38s12.63,1.76,14.1,1.76,16.15-.29,19.24,0l.73-.88s-7.93-2.39-13.07-4.21-14.54-4-17-4.16-3.67,1-4,2.35S92.85,95.49,93.73,96.38Z"/><path class="cls-1" d="M147.86,107.1c-4.31-2.49-17.86-9.08-37-6.69-15.72,2-25,5.32-29.34,7.3a7.48,7.48,0,0,1-6.2,0c-4.37-2-13.62-5.34-29.34-7.3C26.9,98,13.35,104.61,9,107.1a2.36,2.36,0,0,0-1.12,2.54l1.5,7.05a2.38,2.38,0,0,0,2.77,1.84l.79-.15s2.24,12.46,4.7,19.43c4.13,11.7,15.9,16.67,28.76,15.21s17.24-6.28,21.48-15.2S73,122.92,78.45,122.77c5.41.15,6.28,6.14,10.52,15.05s8.62,13.74,21.48,15.2,24.63-3.51,28.76-15.21c2.46-7,4.7-19.43,4.7-19.43l.79.15a2.38,2.38,0,0,0,2.77-1.84l1.5-7.05A2.36,2.36,0,0,0,147.86,107.1ZM58,145c-7.23,5.37-34.09,10.67-38.76-14.91-.91-5-3.11-14.69-.58-17.54s12.71-7.78,27.4-6.69,22.14,8.77,21.81,14.91S65.26,139.62,58,145Zm79.61-14.91C133,155.66,106.11,150.36,98.87,145S89.34,126.9,89,120.76s7.12-13.81,21.81-14.91,24.88,3.84,27.4,6.69S138.55,125.09,137.64,130.08Z"/><path class="cls-1" d="M5.41,112.84S-1,113.5.13,121.65s6.67,24.67,7.74,26.87,7.6,2.25,10.22,1.76c0,0-8.06-2.2-9-5.07s-11.12-28.64-3.63-30Z"/><path class="cls-1" d="M150.68,114.82s-5.51,29.63-6.83,32.33-7.15,3.39-7.15,3.39V154s7.92-1.21,9.13-6.28S153.55,115,153,114.82A3.24,3.24,0,0,0,150.68,114.82Z"/><path class="cls-1" d="M71.17,152.3c-1,.66,0,2.55,2.2,4.41,2,1.65,7.16,2.64,11.45-3.41,0,0-5.62,3.88-9.14,1.55S72.49,151.42,71.17,152.3Z"/><path class="cls-1" d="M139.16,142.5,131,149.93,129.76,182s-35.6,40.16-51.31,21.49C62.74,222.15,27.14,182,27.14,182l-1.28-32.06-8.12-7.43s-2.35,25.4-3.7,37,3,11.56,8.34,17,37,24.22,39.4,25.55,16.66.3,16.66.3,14.31,1,16.66-.3,34.45-21.48,39.75-26.91,9.69-5.34,8.34-17S139.16,142.5,139.16,142.5Z"/><path class="cls-1" d="M69.5.35C-13,6.81,9,101.32,9,101.32l1.55,0C8.07,88.38-3.92,9,69.71,3.2c78.78-6.17,79.9,75,72.48,96.48h1.18C151.72,80.91,153-6.19,69.5.35Z"/><path class="cls-1" d="M82.37,183c-1.28-.35-1.87,1.1-.88,1.65s3.41.55,7.49-.83,9-4.24,9.47-5.45-2.09,1.21-6.06,2.64S84.79,183.64,82.37,183Z"/><path class="cls-1" d="M51.29,120.79l-5.51,5.26L48,118.79a7.55,7.55,0,0,0-2.24-.37,7.67,7.67,0,1,0,5.51,2.37Z"/><path class="cls-1" d="M115.61,120.79l-5.51,5.26,2.24-7.26a7.56,7.56,0,0,0-2.24-.37,7.67,7.67,0,1,0,5.51,2.37Z"/></g></g></svg>