<svg xmlns="http://www.w3.org/2000/svg" viewBox="0 0 143.49 225.23"><defs><style>.cls-1{fill:#2b2e31;}</style></defs><title>Element 33</title><g id="Ebene_2" data-name="Ebene 2"><g id="Layer_1" data-name="Layer 1"><path class="cls-1" d="M140,99c-3.22-1.3-16-6.16-30.1-6.94s-21.78,5.53-24.52,8.13a2.66,2.66,0,0,1-2.19.7c-2-.27-5.79-.75-8.43-.8s-6.46.53-8.43.8a2.66,2.66,0,0,1-2.19-.7c-2.73-2.59-10.39-8.91-24.52-8.13S12.75,97.72,9.52,99a1.24,1.24,0,0,0-.78,1.16v4.37a1.26,1.26,0,0,0,1.07,1.23,5.18,5.18,0,0,1,3,1.45c-.28,4.89-.21,12.43,1.33,17.39s5.45,15.79,19.35,18,22.77-3.28,29.34-11.94c5.62-7.41,5.82-19.23,5.76-22.48a1.32,1.32,0,0,1,1-1.32,36.09,36.09,0,0,1,10.28,0,1.32,1.32,0,0,1,1,1.32c-.06,3.25.14,15.07,5.76,22.48,6.57,8.66,15.44,14.11,29.34,11.94s17.81-13,19.35-18,1.61-12.5,1.33-17.39a5.18,5.18,0,0,1,3-1.45,1.26,1.26,0,0,0,1.07-1.23v-4.37A1.24,1.24,0,0,0,140,99ZM64,123.13c-2.1,5.87-6.25,11.6-16,15.72-8.18,3.45-18.3,1.43-23.33-2.48s-8.33-8.82-9.5-18.09C14,108.85,18.11,101,20.69,99.41s7.26-4.54,17.6-5c6.85-.28,15.93.87,23.26,6.85S65.26,119.7,64,123.13Zm70.31-4.85c-1.17,9.27-4.47,14.18-9.5,18.09s-15.15,5.93-23.33,2.48c-9.78-4.12-13.94-9.85-16-15.72-1.23-3.43-4.85-15.85,2.48-21.83s16.41-7.12,23.26-6.85c10.34.42,15,3.42,17.6,5S135.53,108.85,134.35,118.28Z"/><path class="cls-1" d="M127.14,142c-2.35,2.06-8.52,3.67-8.52,3.67-.59,5.73-3.52,16-7,18.5s-8.52-7.2-16.89-11.6c-5.8-3.05-15.47,0-19.79,2.41-4.31-2.4-14-5.46-19.79-2.41-8.37,4.41-13.36,14.1-16.89,11.6s-6.46-12.78-7-18.5c0,0-6.17-1.62-8.52-3.67,0,0-5.73,27-4.26,40.38s9.23,42.72,56.32,42.87h.37c47.09-.16,54.85-29.54,56.32-42.87S127.14,142,127.14,142Zm-31.87,57c-1.88,7.4-17.83,4.94-20.19,4.48v-.07l-.18,0-.18,0v.07c-2.36.46-18.31,2.92-20.19-4.48-2.06-8.08-2.79-31.87,1.61-31s13.62,6.27,18.76.19c5.14,6.09,14.49.67,18.76-.19S97.33,190.87,95.28,198.94Z"/><path class="cls-1" d="M60.51,178.35c-.84-.76-3.85,1.21-1.54,3s10.24,4.22,20.6,2.28C79.56,183.6,65.14,182.53,60.51,178.35Z"/><path class="cls-1" d="M139,110.25c-.81,0-1.76,0-1.76,1.17s.81,1.1,1.76,1.17,2.42-.22,2.5,2.79-1,13.44-4.41,20-6.9,9.1-6,10.5,4-3.52,5.58-6.17,7.64-14.46,6.75-27.39C143.41,112.38,142.89,110,139,110.25Z"/><path class="cls-1" d="M10.51,114.51a1.42,1.42,0,0,0,.66-2.06c-.59-1.1-3.16-3.52-5.73-3.3S1,112.16,1,114.28s-.51,12.41,4.77,22.1,7.49,12.85,7.86,9.32a122.72,122.72,0,0,1-7.12-11.82c-1.91-4.11-5.29-16.45-3.3-21.22,0,0,2.42-3.08,4.26-1S9,114.95,10.51,114.51Z"/><path class="cls-1" d="M7.94,100.33s8.59-3.82,10.43-4.41c0,0-8.08-33.41,23.94-33.41,0,0,16.89-15,48.94-11.05s38.11,21.59,39.21,27.64.55,18,.55,18l4.85,1.21s3.19-20.93-3.74-30c0,0,26.21-39.87-11.78-65.09,0,0,3.3,4.3,2.75,8,0,0-6.5-7-14.76-9.25,0,0,2.86,2.2,3.08,5.07,0,0-10.13-5.95-13.33-6.94s-8.7,3.19-13.44,7.38S72.62,18,62.6,19,37.49,18.1,29.23,33c0,0-18.14-3-26.51,23.68S7.94,100.33,7.94,100.33Z"/><path class="cls-1" d="M80,143.8c1.18-.44.59,1.62-1.76,2.28s-7.34.81-9.91-.37.73-1.1,1.54-1.1A16.78,16.78,0,0,0,80,143.8Z"/><path class="cls-1" d="M49.94,112.62l-5.51,5.26,2.24-7.26a7.55,7.55,0,0,0-2.24-.37,7.67,7.67,0,1,0,5.51,2.37Z"/><path class="cls-1" d="M110.74,112.62l-5.51,5.26,2.24-7.26a7.55,7.55,0,0,0-2.24-.37,7.67,7.67,0,1,0,5.51,2.37Z"/></g></g></svg>