<svg xmlns="http://www.w3.org/2000/svg" viewBox="0 0 153.72 242.66"><defs><style>.cls-1{fill:#2b2e31;}</style></defs><title>Element 35</title><g id="Ebene_2" data-name="Ebene 2"><g id="Layer_1" data-name="Layer 1"><path class="cls-1" d="M147.24,122.27c-15.08-3-38.35-6.26-48.69-4.38-10.77,2-13.46,3.08-14.66,5.33s-5.15,2.36-7,2.45c-1.86-.09-5.8-.2-7-2.45s-6.06-3.49-16.92-4.9c-12.42-1.61-31.35.93-46.44,3.94a2.23,2.23,0,0,0-1.79,2.23A74.31,74.31,0,0,0,5.85,136.1,2.26,2.26,0,0,0,8.19,138l4-.23s1.35,10.25,3.35,18.71c2.18,9.22,8.31,11.61,22.81,11.44s21-.28,25.77-8.49,6.51-17.92,12.75-17.95c5.92-.08,8,9.73,12.75,17.95s11.28,8.33,25.77,8.49,20.63-2.23,22.81-11.44c2-8.46,3.35-18.71,3.35-18.71l4,.23a2.26,2.26,0,0,0,2.34-1.85A74.31,74.31,0,0,0,149,124.51,2.23,2.23,0,0,0,147.24,122.27ZM63.1,151.21c-4.61,11.18-15.69,11.08-28.18,10.68s-13-5.47-14.87-12.26S14.71,129,23.74,126.22,46.56,124.05,55,125s13.38,4.5,13.2,8.34S67.72,140,63.1,151.21Zm70.59-1.58c-1.86,6.79-2.38,11.86-14.87,12.26s-23.57.51-28.18-10.68-4.87-14.13-5.05-17.86S90.39,126,98.79,125s22.2-1.54,31.23,1.2S135.56,142.84,133.7,149.63Z"/><path class="cls-1" d="M101.08,29a48.21,48.21,0,0,0,4.36-15.76c.88-11-28-13.22-28-13.22s-28.86,2.2-28,13.22A48.21,48.21,0,0,0,53.86,29C26.32,36.44-12.76,58,9.63,120.27l6.83-1.32s-7-74.67,61-42.29c68.06-32.38,61,42.29,61,42.29l6.83,1.32C167.7,58,128.62,36.44,101.08,29Z"/><path class="cls-1" d="M149.23,132c-.81,0-1.76,0-1.76,1.17s.81,1.1,1.76,1.17,2.42-.22,2.5,2.79-1,13.44-4.41,20-6.9,9.1-6,10.5,4-3.52,5.58-6.17,7.64-14.46,6.75-27.39C153.64,134.08,153.12,131.73,149.23,132Z"/><path class="cls-1" d="M9.56,137.66a1.42,1.42,0,0,0,.66-2.06c-.59-1.1-3.16-3.52-5.73-3.3S0,135.31,0,137.44s-.51,12.41,4.77,22.1,7.49,12.85,7.86,9.32A122.72,122.72,0,0,1,5.52,157c-1.91-4.11-5.29-16.45-3.3-21.22,0,0,2.42-3.08,4.26-1S8,138.1,9.56,137.66Z"/><path class="cls-1" d="M138,162.39l-8.12,7.43-1.28,32.06S93,242,77.29,223.37C61.58,242,26,201.88,26,201.88L24.7,169.82l-8.12-7.43s-2.35,25.4-3.7,37,3,11.56,8.34,17,37,24.22,39.4,25.55,16.66.3,16.66.3,14.31,1,16.66-.3,34.45-21.48,39.75-26.91,9.69-5.34,8.34-17S138,162.39,138,162.39Z"/><path class="cls-1" d="M88.25,198.21c1.93-.71-7.84.77-11.19.77s-4.34-.88-4.45,0S81.64,200.63,88.25,198.21Z"/><path class="cls-1" d="M69.74,169.13c-.53-.6-1.54,2.08-1.54,3.19s1.54,2.54,4.52,2.21c0,0-2-1.22-2.26-2.21S70.51,170,69.74,169.13Z"/><path class="cls-1" d="M75.69,172.32c0-1-1.54,1.53-.66,2.26s5.73,2.59,8.48.83c0,0,.86-1.11-2.6-.83S75.69,174.18,75.69,172.32Z"/><path class="cls-1" d="M90.78,172.09c-1.4.74-3.3,1.95-2.53,2s5.07-1.14,4.63-1.8S91.84,171.53,90.78,172.09Z"/><path class="cls-1" d="M49.09,137.44l-5.51,5.26,2.24-7.26a7.55,7.55,0,0,0-2.24-.37,7.67,7.67,0,1,0,5.51,2.37Z"/><path class="cls-1" d="M115.17,137.44l-5.51,5.26,2.24-7.26a7.55,7.55,0,0,0-2.24-.37,7.67,7.67,0,1,0,5.51,2.37Z"/></g></g></svg>