<svg xmlns="http://www.w3.org/2000/svg" viewBox="0 0 155.56 209.82"><defs><style>.cls-1{fill:#2b2e31;}</style></defs><title>Element 36</title><g id="Ebene_2" data-name="Ebene 2"><g id="Layer_1" data-name="Layer 1"><path class="cls-1" d="M145.93,100.4c-15.08-3-38.35-6.26-48.69-4.38-10.77,2-13.46,3.08-14.66,5.33s-5.15,2.36-7,2.45c-1.86-.09-5.8-.2-7-2.45s-6.06-3.49-16.92-4.9c-12.42-1.61-31.35.93-46.44,3.94a2.23,2.23,0,0,0-1.79,2.23,74.31,74.31,0,0,0,1.13,11.59,2.26,2.26,0,0,0,2.34,1.85l4-.23s1.35,10.25,3.35,18.71C16.42,143.77,22.55,146.15,37,146s21-.28,25.77-8.49,6.51-17.92,12.75-17.95c5.92-.08,8,9.73,12.75,17.95s11.28,8.33,25.77,8.49,20.63-2.23,22.81-11.44c2-8.46,3.35-18.71,3.35-18.71l4,.23a2.26,2.26,0,0,0,2.34-1.85,74.31,74.31,0,0,0,1.13-11.59A2.23,2.23,0,0,0,145.93,100.4ZM61.8,129.33C57.18,140.52,46.1,140.41,33.61,140s-13-5.47-14.87-12.26-5.34-20.68,3.68-23.41,22.82-2.16,31.23-1.2,13.38,4.5,13.2,8.34S66.41,118.15,61.8,129.33Zm70.59-1.58c-1.86,6.79-2.38,11.86-14.87,12.26s-23.57.51-28.18-10.68-4.87-14.14-5.05-17.86,4.79-7.37,13.2-8.34,22.2-1.54,31.23,1.2S134.25,121,132.39,127.75Z"/><path class="cls-1" d="M9.49,97.58c.3.84,11-.86,11.16-2.12S19.77,80.11,25.94,71,51.2,45.74,73.37,64.39c0,0,11.75-15.27,28.64-15.42s30.54,8.08,31.57,29.52a54.35,54.35,0,0,1-1,17.62s7.49,1.47,7.93.29,10.28-41.85,12.63-56.1,5.43-33.19-3.82-38.77S105.09,7,90,11.38,28,27.24,18.45,30.62.39,36.05,1.86,49.71,7.59,92.15,9.49,97.58Z"/><path class="cls-1" d="M2.59,111.24c.66,0,.44,1,0,2.2s.16,11.08,1.91,18.36c2.31,9.62,7.49,13.8,11.75,16.74,0,0-2.5.51-5.58-2.54s-6.52-7.12-8.25-16.1S-2.11,110.95,2.59,111.24Z"/><path class="cls-1" d="M148.32,111.24c-.66,0-.44,1,0,2.2s-.16,11.08-1.91,18.36c-2.31,9.62-7.49,13.8-11.75,16.74,0,0,2.5.51,5.58-2.54s6.52-7.12,8.25-16.1S153,110.95,148.32,111.24Z"/><path class="cls-1" d="M21.39,146c.15,1.22,1.62,26,2.06,31.32s.29,8.22,5.29,11.6,21.73,12,36.71,16.89,19.53,4.26,22.91,3.52,27.89-16,33-18.8c6.09-3.27,7.78-5.14,7.78-18.21s.73-26.33.73-26.33l-1.87.63s-.16,20.14-.66,27.53c-.66,9.8.88,10.68-11.23,17.18s-25.88,16.41-31.06,16.41-23.46-3.63-38-11.23S26.6,187.38,25.5,181.43s-1.43-34.8-1.43-34.8Z"/><path class="cls-1" d="M70.88,159c-1.22-.95-2.09.22-2.31,1.43s2.75,1.87,4,2.42,2.86.44,5.62-1.1,4.63-2.64,3.19-2.75-4.69,1.76-6.15,1.65A9.24,9.24,0,0,1,70.88,159Z"/><path class="cls-1" d="M78,181.76c-1.28-.35-1.87,1.1-.88,1.65s3.41.55,7.49-.83,9-4.24,9.47-5.45-2.09,1.21-6.06,2.64S80.46,182.42,78,181.76Z"/><path class="cls-1" d="M51.72,115.82l-5.51,5.26,2.24-7.26a7.55,7.55,0,0,0-2.24-.37,7.67,7.67,0,1,0,5.51,2.37Z"/><path class="cls-1" d="M110.75,115.82l-5.51,5.26,2.24-7.26a7.55,7.55,0,0,0-2.24-.37,7.67,7.67,0,1,0,5.51,2.37Z"/></g></g></svg>