<svg xmlns="http://www.w3.org/2000/svg" viewBox="0 0 167.94 203"><defs><style>.cls-1{fill:#2b2e31;}</style></defs><title>Element 37</title><g id="Ebene_2" data-name="Ebene 2"><g id="Layer_1" data-name="Layer 1"><path class="cls-1" d="M150.51,89.71c-3.22-1.3-16-6.16-30.1-6.94S98.63,88.3,95.9,90.9a2.66,2.66,0,0,1-2.19.7,84.64,84.64,0,0,0-8.43-.8,84.64,84.64,0,0,0-8.43.8,2.66,2.66,0,0,1-2.19-.7C71.92,88.3,64.27,82,50.14,82.77S23.26,88.41,20,89.71a1.24,1.24,0,0,0-.78,1.16v4.37a1.26,1.26,0,0,0,1.07,1.23,5.18,5.18,0,0,1,3,1.45c-.28,4.89-.21,12.43,1.33,17.39s5.45,15.79,19.35,18S66.77,130,73.33,121.33c5.62-7.41,5.82-19.23,5.76-22.48a1.32,1.32,0,0,1,1-1.32,36.09,36.09,0,0,1,10.28,0,1.32,1.32,0,0,1,1,1.32c-.06,3.25.14,15.07,5.76,22.48,6.57,8.66,15.44,14.11,29.34,11.94s17.81-13,19.35-18,1.61-12.5,1.33-17.39a5.18,5.18,0,0,1,3-1.45,1.26,1.26,0,0,0,1.07-1.23V90.87A1.24,1.24,0,0,0,150.51,89.71Zm-76,24.11c-2.1,5.87-6.25,11.6-16,15.72-8.18,3.45-18.3,1.43-23.33-2.48s-8.33-8.82-9.5-18.09c-1.19-9.43,2.93-17.32,5.52-18.86s7.26-4.54,17.6-5c6.85-.28,15.93.87,23.26,6.85S75.78,110.39,74.55,113.82ZM144.86,109c-1.17,9.27-4.47,14.18-9.5,18.09S120.21,133,112,129.54c-9.78-4.12-13.94-9.85-16-15.72C94.77,110.39,91.15,98,98.48,92s16.41-7.12,23.26-6.85c10.34.42,15,3.42,17.6,5S146,99.54,144.86,109Z"/><path class="cls-1" d="M17.5,94.59s.44,1.21,0,1.54-4.85,2.75-5.4,4.74.66,12.78,1.87,18.06a13.14,13.14,0,0,0,7.16,8.92c2.2,1.1,3,1,1.54,1.65s-7.49.22-10.24-7.38-3.41-21.26-2-23.57S14.64,95.58,17.5,94.59Z"/><path class="cls-1" d="M153.08,95.58l-.66,1.76s2.66-.47,2.75,5.4a88,88,0,0,1-3.88,26.21c-1.56,4.94-1.84,7.6-1.29,7.6s5.95-13.88,6.5-24.4S158.69,95.69,153.08,95.58Z"/><path class="cls-1" d="M74.11,126.53c-.53-.6-1.54,2.08-1.54,3.19s1.54,2.54,4.52,2.21c0,0-2-1.22-2.26-2.21S74.88,127.41,74.11,126.53Z"/><path class="cls-1" d="M80.06,129.72c0-1-1.54,1.53-.66,2.26s5.73,2.59,8.48.83c0,0,.86-1.11-2.6-.83S80.06,131.58,80.06,129.72Z"/><path class="cls-1" d="M95.15,129.49c-1.4.74-3.3,1.95-2.53,2s5.07-1.14,4.63-1.8S96.21,128.93,95.15,129.49Z"/><path class="cls-1" d="M79.12,162.32c1-.88,9-2.09,15.73,0,0,0-12.15-.33-14.35,1.21S77.75,163.53,79.12,162.32Z"/><path class="cls-1" d="M86.61,185.56c-.79-.51-1.73,1.1-1.34,3.74s.29,4.85,1.34,4.3S88.65,186.88,86.61,185.56Z"/><path class="cls-1" d="M118.43,141.17c-6.33.55-18.53-3.52-25.22-4.63s-7.74,2.2-7.94,3.19c-.2-1-1.25-4.3-7.94-3.19s-18.88,5.18-25.22,4.63-12.32,23.57,2.35,37.34c0,0,4.11,2.86,4-2.75s-4.46-19.93-2.7-22,11.14-5.84,14.19-5.29,13.65,3.19,15.33.66c1.68,2.53,12.28-.11,15.33-.66s12.43,3.19,14.19,5.29-2.58,16.41-2.7,22,4,2.75,4,2.75C130.75,164.74,124.77,140.62,118.43,141.17Z"/><path class="cls-1" d="M28.51,126.44s-2.75,30.48-2.86,35.77,30.29,31.94,33.81,35.9,8.79,4.63,27,4.85,21.43-.44,26.06-4.85,21.15-21,24.67-24.34,7-4.21,7-9.6-.66-26.53-2.2-38.53c0,0-.77,1.87-4.3,4.68,0,0,3.52,13.93,4.07,36.62,0,0-21.92,20.6-27.42,25.33s-6.94,7.38-13.33,7.71-24.45-.33-29.52-.22-6.72-.33-8.92-1.76-25.11-23.68-29.52-30.07-5.84-4.41-4.85-14,2.31-21.41,3.08-24.75C31.38,129.2,31.49,129.77,28.51,126.44Z"/><path class="cls-1" d="M167.34,71.07c-2.56-7.69-18.94-12.24-18.94-12.24-3.27-10.11-5.84-24.06-15.23-42.85S114,.17,110.53.17,87.19,7,81.49,6.87,64.41,1.17,54.58.6,33.8,7.43,26.11,20.39,15.29,67.23,15.29,67.23l-3.42,1.57C5.89,71.07-3.5,79.47,1.34,84.25s14.95,8,14.95,8-.29-4,0-4.7,4.41-2.28,4.41-2.28-1.28-6,16.09-10.11,47.55-7.12,71.75-6.12,33.88,12.81,33.88,12.81A85.17,85.17,0,0,1,154.52,87c2,1.12,1.85,4,1.85,4C163.92,87.44,169.9,78.76,167.34,71.07ZM82.77,53.56A197.63,197.63,0,0,0,17.67,66.8s18.83-14,64.4-14.95,63.49,8.33,63.49,8.33S118.65,52.71,82.77,53.56Z"/><path class="cls-1" d="M59.49,101.69,54,107l2.24-7.26A7.55,7.55,0,0,0,54,99.32a7.67,7.67,0,1,0,5.51,2.37Z"/><path class="cls-1" d="M122,101.69,116.53,107l2.24-7.26a7.55,7.55,0,0,0-2.24-.37,7.67,7.67,0,1,0,5.51,2.37Z"/></g></g></svg>